<?xml version="1.0" encoding="UTF-8" standalone="no" ?>
<!DOCTYPE svg PUBLIC "-//W3C//DTD SVG 1.1//EN" "http://www.w3.org/Graphics/SVG/1.1/DTD/svg11.dtd">
<svg xmlns="http://www.w3.org/2000/svg" xmlns:xlink="http://www.w3.org/1999/xlink" version="1.1" width="1080" height="300" viewBox="0 0 1080 300" xml:space="preserve">
<desc>Created with Fabric.js 5.2.4</desc>
<defs>
</defs>
<rect x="0" y="0" width="100%" height="100%" fill="transparent"></rect>
<g transform="matrix(1 0 0 1 540 150)" id="e7576771-1309-40a5-af33-7cd548e1e246"  >
<rect style="stroke: none; stroke-width: 1; stroke-dasharray: none; stroke-linecap: butt; stroke-dashoffset: 0; stroke-linejoin: miter; stroke-miterlimit: 4; fill: rgb(255,255,255); fill-rule: nonzero; opacity: 1; visibility: hidden;" vector-effect="non-scaling-stroke"  x="-540" y="-150" rx="0" ry="0" width="1080" height="300" />
</g>
<g transform="matrix(Infinity NaN NaN Infinity 0 0)" id="d58bfb41-e18e-4a9e-bf84-be01aa9ade71"  >
</g>
<g transform="matrix(2.02 0 0 2.02 540 150)"  >
<g style="" vector-effect="non-scaling-stroke"   >
		<g transform="matrix(1 0 0 1 -121.91 0)" id="path2"  >
<path style="stroke: none; stroke-width: 1; stroke-dasharray: none; stroke-linecap: butt; stroke-dashoffset: 0; stroke-linejoin: miter; stroke-miterlimit: 4; fill: rgb(255,255,255); fill-rule: nonzero; opacity: 1;" vector-effect="non-scaling-stroke"  transform=" translate(-121.95, -46.91)" d="M 228.01 25.68 C 224.39 21.27 216.79999999999998 18.18 209.48 18.18 C 198.17999999999998 18.18 191.73999999999998 21.71 191.73999999999998 27.18 C 191.73999999999998 31.15 196.42 34.33 206.57 36.89 L 218.66 39.89 C 235.96 44.13 243.9 51.72 243.9 64.25 C 243.9 82.25 228.72 93.81 205.16 93.81 C 189.81 93.81 176.82999999999998 88.52 168.98 79.07000000000001 L 183.54 66.72000000000001 C 189.01 72.54000000000002 196.51 75.63000000000001 205.16 75.63000000000001 C 216.19 75.63000000000001 223.07 71.66000000000001 223.07 66.19000000000001 C 223.07 61.420000000000016 219.45 58.87000000000001 207.89 55.95000000000001 L 195.89 52.860000000000014 C 179.48 48.710000000000015 171.01 40.420000000000016 171.01 28.060000000000013 C 171 10.94 185.91 0 209.3 0 C 223.24 0 235.51 4.94 242.65 13.33 L 228 25.68 M 98.2 1.32 L 98.2 35.47 L 126.35 35.47 C 139.5 35.47 147 29.29 147 18.349999999999998 C 147 7.409999999999997 139.59 1.32 126.35 1.32 L 98.19999999999999 1.32 Z M 152.2 72.01 C 152.2 59.660000000000004 142.48999999999998 52.07000000000001 126.78999999999999 52.07000000000001 L 98.19999999999999 52.07000000000001 L 98.19999999999999 92.04 L 126.78999999999999 92.04 C 142.5 92.04 152.2 84.36000000000001 152.2 72.01 M 62.02 25.68 C 58.050000000000004 20.83 52.31 18.18 45.96000000000001 18.18 C 29.90000000000001 18.18 20.74000000000001 29.21 20.74000000000001 46.42 C 20.74000000000001 63.63 29.28000000000001 75.45 44.55000000000001 75.45 C 52.32000000000001 75.45 57.70000000000001 72.71000000000001 64.32000000000001 65.57000000000001 L 78.17 78.36000000000001 C 69.7 88.51000000000002 57.790000000000006 93.80000000000001 43.58 93.80000000000001 C 17.46 93.8 0 73.95 0 46.42 C 0 18.89 18.69 0 45.96 0 C 58.84 0 70.31 4.94 76.76 13.24 L 62.02 25.68 Z" stroke-linecap="round" />
</g>
		<g transform="matrix(1 0 0 1 52.2 -32.95)" id="path4"  >
<path style="stroke: none; stroke-width: 1; stroke-dasharray: none; stroke-linecap: butt; stroke-dashoffset: 0; stroke-linejoin: miter; stroke-miterlimit: 4; fill: rgb(255,255,255); fill-rule: nonzero; opacity: 1;" vector-effect="non-scaling-stroke"  transform=" translate(-296.06, -13.95)" d="M 286.14 2.64 L 290.94 2.64 L 290.94 15.84 C 290.94 17.39 291.37 18.66 292.21999999999997 19.62 C 293.07 20.59 294.36999999999995 21.07 296.09999999999997 21.07 C 297.83 21.07 299.09 20.59 299.92999999999995 19.62 C 300.7699999999999 18.650000000000002 301.19999999999993 17.39 301.19999999999993 15.840000000000002 L 301.19999999999993 2.64 L 305.99999999999994 2.64 L 305.99999999999994 15.97 C 305.99999999999994 17.35 305.79999999999995 18.61 305.3999999999999 19.75 C 304.99999999999994 20.9 304.38999999999993 21.87 303.5799999999999 22.68 C 302.7699999999999 23.49 301.73999999999995 24.13 300.49999999999994 24.58 C 299.25999999999993 25.04 297.78999999999996 25.259999999999998 296.09999999999997 25.259999999999998 C 294.40999999999997 25.259999999999998 292.93999999999994 25.029999999999998 291.67999999999995 24.58 C 290.42999999999995 24.13 289.38999999999993 23.49 288.55999999999995 22.68 C 287.73999999999995 21.87 287.12999999999994 20.89 286.72999999999996 19.75 C 286.33 18.61 286.12999999999994 17.36 286.12999999999994 16 L 286.12999999999994 2.64 Z" stroke-linecap="round" />
</g>
		<g transform="matrix(1 0 0 1 77.98 -33.15)" id="path6"  >
<path style="stroke: none; stroke-width: 1; stroke-dasharray: none; stroke-linecap: butt; stroke-dashoffset: 0; stroke-linejoin: miter; stroke-miterlimit: 4; fill: rgb(255,255,255); fill-rule: nonzero; opacity: 1;" vector-effect="non-scaling-stroke"  transform=" translate(-321.84, -13.76)" d="M 316.62 9.94 L 316.62 24.869999999999997 L 311.89 24.869999999999997 L 311.89 2.64 L 316.76 2.64 L 327.06 17.04 L 327.06 2.64 L 331.79 2.64 L 331.79 24.87 L 327.22 24.87 L 316.62 9.940000000000001 Z" stroke-linecap="round" />
</g>
		<g transform="matrix(1 0 0 1 96.26 -33.15)" id="path8"  >
<path style="stroke: none; stroke-width: 1; stroke-dasharray: none; stroke-linecap: butt; stroke-dashoffset: 0; stroke-linejoin: miter; stroke-miterlimit: 4; fill: rgb(255,255,255); fill-rule: nonzero; opacity: 1;" vector-effect="non-scaling-stroke"  transform=" translate(-340.12, -13.76)" d="M 337.75 2.64 L 342.48 2.64 L 342.48 24.87 L 337.75 24.87 L 337.75 2.64 Z" stroke-linecap="round" />
</g>
		<g transform="matrix(1 0 0 1 113.64 -33.15)" id="path10"  >
<path style="stroke: none; stroke-width: 1; stroke-dasharray: none; stroke-linecap: butt; stroke-dashoffset: 0; stroke-linejoin: miter; stroke-miterlimit: 4; fill: rgb(255,255,255); fill-rule: nonzero; opacity: 1;" vector-effect="non-scaling-stroke"  transform=" translate(-357.5, -13.76)" d="M 345.95 2.64 L 351.34999999999997 2.64 C 351.34999999999997 2.64 357.52 19.740000000000002 357.52 19.740000000000002 L 363.65 2.6400000000000006 L 369.04999999999995 2.6400000000000006 L 360.47999999999996 24.87 L 354.54999999999995 24.87 L 345.94999999999993 2.6400000000000006 Z" stroke-linecap="round" />
</g>
		<g transform="matrix(1 0 0 1 136.53 -33.14)" id="path12"  >
<path style="stroke: none; stroke-width: 1; stroke-dasharray: none; stroke-linecap: butt; stroke-dashoffset: 0; stroke-linejoin: miter; stroke-miterlimit: 4; fill: rgb(255,255,255); fill-rule: nonzero; opacity: 1;" vector-effect="non-scaling-stroke"  transform=" translate(-380.39, -13.76)" d="M 372.53 2.64 L 388.26 2.64 L 388.26 6.710000000000001 L 377.26 6.710000000000001 L 377.26 11.540000000000001 L 388.03 11.540000000000001 L 388.03 15.610000000000001 L 377.26 15.610000000000001 L 377.26 20.78 L 388.26 20.78 L 388.26 24.880000000000003 L 372.53 24.880000000000003 L 372.53 2.64 Z" stroke-linecap="round" />
</g>
		<g transform="matrix(1 0 0 1 158.88 -33.15)" id="path14"  >
<path style="stroke: none; stroke-width: 1; stroke-dasharray: none; stroke-linecap: butt; stroke-dashoffset: 0; stroke-linejoin: miter; stroke-miterlimit: 4; fill: rgb(255,255,255); fill-rule: nonzero; opacity: 1;" vector-effect="non-scaling-stroke"  transform=" translate(-402.74, -13.76)" d="M 406.78 9.77 C 406.78 8.84 406.46 8.09 405.83 7.539999999999999 C 405.2 6.989999999999999 404.4 6.709999999999999 403.45 6.709999999999999 L 398.47999999999996 6.709999999999999 L 398.47999999999996 12.84 L 403.45 12.84 C 404.40999999999997 12.84 405.2 12.56 405.83 12.01 C 406.46 11.459999999999999 406.78 10.709999999999999 406.78 9.78 M 401.95 16.9 L 398.47999999999996 16.9 L 398.47999999999996 24.869999999999997 L 393.74999999999994 24.869999999999997 L 393.74999999999994 2.64 L 404.1499999999999 2.64 C 405.30999999999995 2.64 406.3399999999999 2.8200000000000003 407.2699999999999 3.17 C 408.18999999999994 3.53 408.9799999999999 4.03 409.61999999999995 4.67 C 410.25999999999993 5.32 410.75999999999993 6.07 411.09999999999997 6.9399999999999995 C 411.45 7.81 411.61999999999995 8.76 411.61999999999995 9.809999999999999 C 411.61999999999995 10.79 411.47999999999996 11.659999999999998 411.19999999999993 12.409999999999998 C 410.91999999999996 13.169999999999998 410.54999999999995 13.819999999999999 410.0799999999999 14.359999999999998 C 409.6099999999999 14.909999999999998 409.0899999999999 15.349999999999998 408.50999999999993 15.689999999999998 C 407.92999999999995 16.04 407.3399999999999 16.269999999999996 406.73999999999995 16.409999999999997 L 411.73999999999995 24.879999999999995 L 406.30999999999995 24.879999999999995 L 401.93999999999994 16.909999999999997 Z" stroke-linecap="round" />
</g>
		<g transform="matrix(1 0 0 1 180.16 -33.12)" id="path16"  >
<path style="stroke: none; stroke-width: 1; stroke-dasharray: none; stroke-linecap: butt; stroke-dashoffset: 0; stroke-linejoin: miter; stroke-miterlimit: 4; fill: rgb(255,255,255); fill-rule: nonzero; opacity: 1;" vector-effect="non-scaling-stroke"  transform=" translate(-424.02, -13.79)" d="M 417.43 18.14 C 418.21 18.96 419.2 19.67 420.40000000000003 20.26 C 421.6 20.85 422.97 21.14 424.50000000000006 21.14 C 425.81000000000006 21.14 426.78000000000003 20.89 427.4200000000001 20.37 C 428.05000000000007 19.86 428.37000000000006 19.28 428.37000000000006 18.64 C 428.37000000000006 18.22 428.25000000000006 17.86 428.02000000000004 17.57 C 427.79 17.28 427.47 17.03 427.07000000000005 16.82 C 426.6700000000001 16.61 426.20000000000005 16.43 425.65000000000003 16.27 C 425.1 16.11 424.51000000000005 15.959999999999999 423.87000000000006 15.799999999999999 C 422.96000000000004 15.6 422.01000000000005 15.36 421.0400000000001 15.079999999999998 C 420.06000000000006 14.799999999999999 419.1700000000001 14.429999999999998 418.36000000000007 13.95 C 417.55000000000007 13.469999999999999 416.88000000000005 12.84 416.36000000000007 12.049999999999999 C 415.8400000000001 11.259999999999998 415.5800000000001 10.239999999999998 415.5800000000001 9 C 415.5800000000001 8.07 415.7700000000001 7.1899999999999995 416.1600000000001 6.38 C 416.55000000000007 5.57 417.1000000000001 4.859999999999999 417.8300000000001 4.26 C 418.5600000000001 3.66 419.4400000000001 3.1799999999999997 420.4800000000001 2.83 C 421.5300000000001 2.47 422.7000000000001 2.3 424.01000000000005 2.3 C 427.54 2.3 430.43000000000006 3.33 432.68000000000006 5.4 L 430.05000000000007 8.870000000000001 C 429.14000000000004 8.030000000000001 428.12000000000006 7.410000000000001 427.00000000000006 7.020000000000001 C 425.88000000000005 6.630000000000002 424.77000000000004 6.440000000000001 423.68000000000006 6.440000000000001 C 422.5900000000001 6.440000000000001 421.80000000000007 6.650000000000001 421.25000000000006 7.070000000000001 C 420.69000000000005 7.490000000000001 420.4200000000001 8.040000000000001 420.4200000000001 8.700000000000001 C 420.4200000000001 9.080000000000002 420.5300000000001 9.39 420.75000000000006 9.65 C 420.9700000000001 9.91 421.28000000000003 10.13 421.6700000000001 10.32 C 422.06000000000006 10.51 422.5300000000001 10.68 423.07000000000005 10.82 C 423.61000000000007 10.97 424.21000000000004 11.11 424.85 11.27 C 425.76000000000005 11.469999999999999 426.71000000000004 11.709999999999999 427.70000000000005 11.99 C 428.69000000000005 12.27 429.59000000000003 12.66 430.40000000000003 13.16 C 431.21000000000004 13.66 431.88000000000005 14.31 432.40000000000003 15.09 C 432.92 15.879999999999999 433.18 16.9 433.18 18.14 C 433.18 19.16 433 20.11 432.63 20.97 C 432.26 21.84 431.71 22.59 430.98 23.22 C 430.25 23.849999999999998 429.33000000000004 24.349999999999998 428.21000000000004 24.72 C 427.1 25.09 425.79 25.27 424.28000000000003 25.27 C 422.12 25.27 420.28000000000003 24.95 418.75000000000006 24.3 C 417.2200000000001 23.66 415.9200000000001 22.8 414.8500000000001 21.73 L 417.4500000000001 18.13 Z" stroke-linecap="round" />
</g>
		<g transform="matrix(1 0 0 1 196.58 -33.15)" id="path18"  >
<path style="stroke: none; stroke-width: 1; stroke-dasharray: none; stroke-linecap: butt; stroke-dashoffset: 0; stroke-linejoin: miter; stroke-miterlimit: 4; fill: rgb(255,255,255); fill-rule: nonzero; opacity: 1;" vector-effect="non-scaling-stroke"  transform=" translate(-440.44, -13.76)" d="M 438.07 2.64 L 442.8 2.64 L 442.8 24.87 L 438.07 24.87 L 438.07 2.64 Z" stroke-linecap="round" />
</g>
		<g transform="matrix(1 0 0 1 211.61 -33.14)" id="path20"  >
<path style="stroke: none; stroke-width: 1; stroke-dasharray: none; stroke-linecap: butt; stroke-dashoffset: 0; stroke-linejoin: miter; stroke-miterlimit: 4; fill: rgb(255,255,255); fill-rule: nonzero; opacity: 1;" vector-effect="non-scaling-stroke"  transform=" translate(-455.47, -13.76)" d="M 453.1 6.8 L 446.6 6.8 L 446.6 2.64 L 464.33000000000004 2.64 L 464.33000000000004 6.8100000000000005 L 457.86 6.8100000000000005 L 457.86 24.880000000000003 L 453.09000000000003 24.880000000000003 L 453.09000000000003 6.8 Z" stroke-linecap="round" />
</g>
		<g transform="matrix(1 0 0 1 232.96 -33.15)" id="path22"  >
<path style="stroke: none; stroke-width: 1; stroke-dasharray: none; stroke-linecap: butt; stroke-dashoffset: 0; stroke-linejoin: miter; stroke-miterlimit: 4; fill: rgb(255,255,255); fill-rule: nonzero; opacity: 1;" vector-effect="non-scaling-stroke"  transform=" translate(-476.82, -13.75)" d="M 474.49 15.77 L 465.92 2.639999999999999 L 471.32 2.639999999999999 L 476.84999999999997 11.569999999999999 L 482.32 2.639999999999999 L 487.71999999999997 2.639999999999999 L 479.21999999999997 15.77 L 479.21999999999997 24.869999999999997 L 474.48999999999995 24.869999999999997 L 474.48999999999995 15.769999999999998 Z" stroke-linecap="round" />
</g>
		<g transform="matrix(1 0 0 1 50.14 32.23)" id="path24"  >
<path style="stroke: none; stroke-width: 1; stroke-dasharray: none; stroke-linecap: butt; stroke-dashoffset: 0; stroke-linejoin: miter; stroke-miterlimit: 4; fill: rgb(255,255,255); fill-rule: nonzero; opacity: 1;" vector-effect="non-scaling-stroke"  transform=" translate(-294, -79.13)" d="M 287.41 83.49 C 288.19 84.30999999999999 289.18 85.02 290.38000000000005 85.61 C 291.58000000000004 86.2 292.95000000000005 86.49 294.4800000000001 86.49 C 295.7900000000001 86.49 296.76000000000005 86.24 297.4000000000001 85.72 C 298.0300000000001 85.21 298.3500000000001 84.63 298.3500000000001 83.99 C 298.3500000000001 83.57 298.2300000000001 83.21 298.00000000000006 82.92 C 297.77000000000004 82.63 297.45000000000005 82.38 297.05000000000007 82.17 C 296.6500000000001 81.96000000000001 296.18000000000006 81.78 295.63000000000005 81.62 C 295.08000000000004 81.46000000000001 294.49000000000007 81.31 293.8500000000001 81.15 C 292.94000000000005 80.95 291.99000000000007 80.71000000000001 291.0200000000001 80.43 C 290.0400000000001 80.15 289.1500000000001 79.78 288.3400000000001 79.30000000000001 C 287.5300000000001 78.82000000000001 286.86000000000007 78.19000000000001 286.3400000000001 77.4 C 285.8200000000001 76.61 285.5600000000001 75.59 285.5600000000001 74.35000000000001 C 285.5600000000001 73.42 285.7500000000001 72.55000000000001 286.1400000000001 71.73 C 286.5300000000001 70.92 287.0800000000001 70.21000000000001 287.8100000000001 69.61 C 288.53000000000014 69.01 289.42000000000013 68.53 290.4600000000001 68.17999999999999 C 291.5100000000001 67.83 292.6800000000001 67.64999999999999 293.99000000000007 67.64999999999999 C 297.52000000000004 67.64999999999999 300.4100000000001 68.67999999999999 302.6600000000001 70.74999999999999 L 300.0300000000001 74.21999999999998 C 299.12000000000006 73.37999999999998 298.1000000000001 72.75999999999999 296.9800000000001 72.36999999999999 C 295.86000000000007 71.97999999999999 294.75000000000006 71.78999999999999 293.6600000000001 71.78999999999999 C 292.5700000000001 71.78999999999999 291.7800000000001 71.99999999999999 291.2300000000001 72.41999999999999 C 290.6700000000001 72.83999999999999 290.4000000000001 73.38999999999999 290.4000000000001 74.04999999999998 C 290.4000000000001 74.42999999999998 290.5100000000001 74.73999999999998 290.7300000000001 74.99999999999999 C 290.9500000000001 75.24999999999999 291.26000000000005 75.47999999999999 291.6500000000001 75.66999999999999 C 292.0400000000001 75.85999999999999 292.5100000000001 76.01999999999998 293.05000000000007 76.16999999999999 C 293.5900000000001 76.30999999999999 294.19000000000005 76.46 294.83000000000004 76.61999999999999 C 295.74000000000007 76.82 296.69000000000005 77.05999999999999 297.68000000000006 77.33999999999999 C 298.6700000000001 77.61999999999999 299.57000000000005 78.00999999999999 300.38000000000005 78.50999999999999 C 301.19000000000005 79.00999999999999 301.86000000000007 79.64999999999999 302.38000000000005 80.44 C 302.90000000000003 81.23 303.16 82.25 303.16 83.49 C 303.16 84.50999999999999 302.98 85.46 302.61 86.32 C 302.24 87.19 301.69 87.94 300.96000000000004 88.57 C 300.23 89.19999999999999 299.31000000000006 89.69999999999999 298.19000000000005 90.07 C 297.08000000000004 90.44 295.77000000000004 90.61999999999999 294.26000000000005 90.61999999999999 C 292.1 90.61999999999999 290.26000000000005 90.3 288.7300000000001 89.64999999999999 C 287.2000000000001 89.00999999999999 285.9000000000001 88.14999999999999 284.8300000000001 87.08 L 287.4300000000001 83.48 Z" stroke-linecap="round" />
</g>
		<g transform="matrix(1 0 0 1 72.82 32.25)" id="path26"  >
<path style="stroke: none; stroke-width: 1; stroke-dasharray: none; stroke-linecap: butt; stroke-dashoffset: 0; stroke-linejoin: miter; stroke-miterlimit: 4; fill: rgb(255,255,255); fill-rule: nonzero; opacity: 1;" vector-effect="non-scaling-stroke"  transform=" translate(-316.68, -79.15)" d="M 317.79 90.62 C 316.17 90.62 314.65000000000003 90.34 313.22 89.79 C 311.8 89.24000000000001 310.57000000000005 88.45 309.52000000000004 87.44000000000001 C 308.47 86.43 307.65000000000003 85.22000000000001 307.03000000000003 83.81000000000002 C 306.42 82.40000000000002 306.11 80.84000000000002 306.11 79.13000000000002 C 306.11 77.42000000000003 306.42 75.86000000000003 307.03000000000003 74.45000000000002 C 307.64000000000004 73.04000000000002 308.47 71.83000000000001 309.52000000000004 70.82000000000002 C 310.56000000000006 69.81000000000002 311.8 69.03000000000002 313.22 68.47000000000003 C 314.64000000000004 67.92000000000003 316.16 67.64000000000003 317.79 67.64000000000003 C 319.06 67.64000000000003 320.19 67.80000000000003 321.19 68.11000000000003 C 322.19 68.42000000000003 323.07 68.83000000000003 323.84 69.33000000000003 C 324.60999999999996 69.83000000000003 325.27 70.41000000000003 325.82 71.06000000000003 C 326.37 71.72000000000003 326.84999999999997 72.39000000000003 327.25 73.08000000000003 L 323.18 75.08000000000003 C 322.71 74.17000000000003 322.01 73.40000000000002 321.06 72.78000000000003 C 320.11 72.16000000000003 319.02 71.85000000000002 317.78000000000003 71.85000000000002 C 316.82000000000005 71.85000000000002 315.93 72.03000000000003 315.1 72.40000000000002 C 314.27000000000004 72.77000000000002 313.54 73.27000000000002 312.93 73.92000000000002 C 312.32 74.57000000000002 311.84000000000003 75.34000000000002 311.5 76.24000000000001 C 311.15 77.14000000000001 310.98 78.11000000000001 310.98 79.16000000000001 C 310.98 80.21000000000001 311.15000000000003 81.17000000000002 311.5 82.06000000000002 C 311.84 82.95000000000002 312.32 83.72000000000001 312.93 84.38000000000001 C 313.54 85.03000000000002 314.26 85.55000000000001 315.1 85.91000000000001 C 315.93 86.28000000000002 316.83000000000004 86.46000000000001 317.78000000000003 86.46000000000001 C 319.03000000000003 86.46000000000001 320.12 86.15 321.06 85.54 C 322 84.93 322.71 84.16000000000001 323.18 83.22000000000001 L 327.25 85.19000000000001 C 326.85 85.88000000000001 326.37 86.55000000000001 325.82 87.21000000000001 C 325.26 87.86000000000001 324.59999999999997 88.45 323.84 88.96000000000001 C 323.07 89.47000000000001 322.19 89.88000000000001 321.19 90.19000000000001 C 320.19 90.50000000000001 319.06 90.66000000000001 317.79 90.66000000000001" stroke-linecap="round" />
</g>
		<g transform="matrix(1 0 0 1 89.81 32.2)" id="path28"  >
<path style="stroke: none; stroke-width: 1; stroke-dasharray: none; stroke-linecap: butt; stroke-dashoffset: 0; stroke-linejoin: miter; stroke-miterlimit: 4; fill: rgb(255,255,255); fill-rule: nonzero; opacity: 1;" vector-effect="non-scaling-stroke"  transform=" translate(-333.67, -79.1)" d="M 331.3 67.99 L 336.03000000000003 67.99 L 336.03000000000003 90.22 L 331.3 90.22 L 331.3 67.99 Z" stroke-linecap="round" />
</g>
		<g transform="matrix(1 0 0 1 105.99 32.2)" id="path30"  >
<path style="stroke: none; stroke-width: 1; stroke-dasharray: none; stroke-linecap: butt; stroke-dashoffset: 0; stroke-linejoin: miter; stroke-miterlimit: 4; fill: rgb(255,255,255); fill-rule: nonzero; opacity: 1;" vector-effect="non-scaling-stroke"  transform=" translate(-349.85, -79.11)" d="M 341.98 67.99 L 357.71000000000004 67.99 L 357.71000000000004 72.06 L 346.71000000000004 72.06 L 346.71000000000004 76.89 L 357.48 76.89 L 357.48 80.96000000000001 L 346.71000000000004 80.96000000000001 L 346.71000000000004 86.13000000000001 L 357.71000000000004 86.13000000000001 L 357.71000000000004 90.23 L 341.98 90.23 L 341.98 68 Z" stroke-linecap="round" />
</g>
		<g transform="matrix(1 0 0 1 129.3 32.2)" id="path32"  >
<path style="stroke: none; stroke-width: 1; stroke-dasharray: none; stroke-linecap: butt; stroke-dashoffset: 0; stroke-linejoin: miter; stroke-miterlimit: 4; fill: rgb(255,255,255); fill-rule: nonzero; opacity: 1;" vector-effect="non-scaling-stroke"  transform=" translate(-373.16, -79.1)" d="M 367.94 75.29 L 367.94 90.22 L 363.21 90.22 L 363.21 67.99 L 368.08 67.99 L 378.38 82.39 L 378.38 67.99 L 383.11 67.99 L 383.11 90.22 L 378.54 90.22 L 367.94 75.28999999999999 Z" stroke-linecap="round" />
</g>
		<g transform="matrix(1 0 0 1 153.97 32.25)" id="path34"  >
<path style="stroke: none; stroke-width: 1; stroke-dasharray: none; stroke-linecap: butt; stroke-dashoffset: 0; stroke-linejoin: miter; stroke-miterlimit: 4; fill: rgb(255,255,255); fill-rule: nonzero; opacity: 1;" vector-effect="non-scaling-stroke"  transform=" translate(-397.83, -79.15)" d="M 398.94 90.62 C 397.32 90.62 395.8 90.34 394.37 89.79 C 392.95 89.24000000000001 391.72 88.45 390.67 87.44000000000001 C 389.62 86.43 388.8 85.22000000000001 388.18 83.81000000000002 C 387.57 82.40000000000002 387.26 80.84000000000002 387.26 79.13000000000002 C 387.26 77.42000000000003 387.57 75.86000000000003 388.18 74.45000000000002 C 388.79 73.04000000000002 389.62 71.83000000000001 390.67 70.82000000000002 C 391.71000000000004 69.81000000000002 392.95 69.03000000000002 394.37 68.47000000000003 C 395.79 67.92000000000003 397.31 67.64000000000003 398.94 67.64000000000003 C 400.21 67.64000000000003 401.34 67.80000000000003 402.34 68.11000000000003 C 403.34 68.42000000000003 404.21999999999997 68.83000000000003 404.98999999999995 69.33000000000003 C 405.75999999999993 69.83000000000003 406.41999999999996 70.41000000000003 406.96999999999997 71.06000000000003 C 407.52 71.72000000000003 407.99999999999994 72.39000000000003 408.4 73.08000000000003 L 404.33 75.08000000000003 C 403.85999999999996 74.17000000000003 403.15999999999997 73.40000000000002 402.21 72.78000000000003 C 401.26 72.16000000000003 400.16999999999996 71.85000000000002 398.93 71.85000000000002 C 397.97 71.85000000000002 397.08 72.03000000000003 396.25 72.40000000000002 C 395.42 72.77000000000002 394.69 73.27000000000002 394.08 73.92000000000002 C 393.46999999999997 74.57000000000002 392.99 75.34000000000002 392.65 76.24000000000001 C 392.29999999999995 77.14000000000001 392.13 78.11000000000001 392.13 79.16000000000001 C 392.13 80.21000000000001 392.3 81.17000000000002 392.65 82.06000000000002 C 392.98999999999995 82.95000000000002 393.46999999999997 83.72000000000001 394.08 84.38000000000001 C 394.69 85.03000000000002 395.40999999999997 85.55000000000001 396.25 85.91000000000001 C 397.08 86.28000000000002 397.98 86.46000000000001 398.93 86.46000000000001 C 400.18 86.46000000000001 401.27 86.15 402.21 85.54 C 403.15 84.93 403.85999999999996 84.16000000000001 404.33 83.22000000000001 L 408.4 85.19000000000001 C 408 85.88000000000001 407.52 86.55000000000001 406.96999999999997 87.21000000000001 C 406.40999999999997 87.86000000000001 405.74999999999994 88.45 404.98999999999995 88.96000000000001 C 404.21999999999997 89.47000000000001 403.34 89.88000000000001 402.34 90.19000000000001 C 401.34 90.50000000000001 400.21 90.66000000000001 398.94 90.66000000000001" stroke-linecap="round" />
</g>
		<g transform="matrix(1 0 0 1 176.27 32.2)" id="path36"  >
<path style="stroke: none; stroke-width: 1; stroke-dasharray: none; stroke-linecap: butt; stroke-dashoffset: 0; stroke-linejoin: miter; stroke-miterlimit: 4; fill: rgb(255,255,255); fill-rule: nonzero; opacity: 1;" vector-effect="non-scaling-stroke"  transform=" translate(-420.13, -79.11)" d="M 412.26 67.99 L 427.99 67.99 L 427.99 72.06 L 416.99 72.06 L 416.99 76.89 L 427.76 76.89 L 427.76 80.96000000000001 L 416.99 80.96000000000001 L 416.99 86.13000000000001 L 427.99 86.13000000000001 L 427.99 90.23 L 412.26 90.23 L 412.26 68 Z" stroke-linecap="round" />
</g>
		<g transform="matrix(1 0 0 1 197.05 32.23)" id="path38"  >
<path style="stroke: none; stroke-width: 1; stroke-dasharray: none; stroke-linecap: butt; stroke-dashoffset: 0; stroke-linejoin: miter; stroke-miterlimit: 4; fill: rgb(255,255,255); fill-rule: nonzero; opacity: 1;" vector-effect="non-scaling-stroke"  transform=" translate(-440.91, -79.13)" d="M 434.32 83.49 C 435.09999999999997 84.30999999999999 436.09 85.02 437.29 85.61 C 438.49 86.2 439.86 86.49 441.39000000000004 86.49 C 442.70000000000005 86.49 443.67 86.24 444.31000000000006 85.72 C 444.94000000000005 85.21 445.26000000000005 84.63 445.26000000000005 83.99 C 445.26000000000005 83.57 445.14000000000004 83.21 444.91 82.92 C 444.68 82.63 444.36 82.38 443.96000000000004 82.17 C 443.56000000000006 81.96000000000001 443.09000000000003 81.78 442.54 81.62 C 441.99 81.46000000000001 441.40000000000003 81.31 440.76000000000005 81.15 C 439.85 80.95 438.90000000000003 80.71000000000001 437.93000000000006 80.43 C 436.95000000000005 80.15 436.06000000000006 79.78 435.25000000000006 79.30000000000001 C 434.44000000000005 78.82000000000001 433.77000000000004 78.19000000000001 433.25000000000006 77.4 C 432.7300000000001 76.61 432.4700000000001 75.59 432.4700000000001 74.35000000000001 C 432.4700000000001 73.42 432.6600000000001 72.55000000000001 433.05000000000007 71.73 C 433.44000000000005 70.92 433.99000000000007 70.21000000000001 434.7200000000001 69.61 C 435.4400000000001 69.01 436.3300000000001 68.53 437.37000000000006 68.17999999999999 C 438.4200000000001 67.83 439.5900000000001 67.64999999999999 440.90000000000003 67.64999999999999 C 444.43 67.64999999999999 447.32000000000005 68.67999999999999 449.57000000000005 70.74999999999999 L 446.94000000000005 74.21999999999998 C 446.03000000000003 73.37999999999998 445.01000000000005 72.75999999999999 443.89000000000004 72.36999999999999 C 442.77000000000004 71.97999999999999 441.66 71.78999999999999 440.57000000000005 71.78999999999999 C 439.4800000000001 71.78999999999999 438.69000000000005 71.99999999999999 438.14000000000004 72.41999999999999 C 437.58000000000004 72.83999999999999 437.31000000000006 73.38999999999999 437.31000000000006 74.04999999999998 C 437.31000000000006 74.42999999999998 437.4200000000001 74.73999999999998 437.64000000000004 74.99999999999999 C 437.86000000000007 75.24999999999999 438.17 75.47999999999999 438.56000000000006 75.66999999999999 C 438.95000000000005 75.85999999999999 439.4200000000001 76.01999999999998 439.96000000000004 76.16999999999999 C 440.50000000000006 76.30999999999999 441.1 76.46 441.74 76.61999999999999 C 442.65000000000003 76.82 443.6 77.05999999999999 444.59000000000003 77.33999999999999 C 445.58000000000004 77.61999999999999 446.48 78.00999999999999 447.29 78.50999999999999 C 448.1 79.00999999999999 448.77000000000004 79.64999999999999 449.29 80.44 C 449.81 81.23 450.07 82.25 450.07 83.49 C 450.07 84.50999999999999 449.89 85.46 449.52 86.32 C 449.15 87.19 448.59999999999997 87.94 447.87 88.57 C 447.14 89.19999999999999 446.22 89.69999999999999 445.1 90.07 C 443.99 90.44 442.68 90.61999999999999 441.17 90.61999999999999 C 439.01 90.61999999999999 437.17 90.3 435.64000000000004 89.64999999999999 C 434.11000000000007 89.00999999999999 432.81000000000006 88.14999999999999 431.74000000000007 87.08 L 434.3400000000001 83.48 Z" stroke-linecap="round" />
</g>
		<g transform="matrix(1 0 0 1 52.39 -0.47)" id="path40"  >
<path style="stroke: none; stroke-width: 1; stroke-dasharray: none; stroke-linecap: butt; stroke-dashoffset: 0; stroke-linejoin: miter; stroke-miterlimit: 4; fill: rgb(255,255,255); fill-rule: nonzero; opacity: 1;" vector-effect="non-scaling-stroke"  transform=" translate(-296.25, -46.44)" d="M 302.99 46.44 C 302.99 45.4 302.83 44.43 302.51 43.54 C 302.19 42.65 301.73 41.88 301.14 41.22 C 300.55 40.56 299.84 40.05 299.01 39.69 C 298.18 39.32 297.25 39.14 296.23 39.14 C 295.21000000000004 39.14 294.28000000000003 39.32 293.45000000000005 39.69 C 292.62000000000006 40.059999999999995 291.91 40.57 291.33000000000004 41.22 C 290.75000000000006 41.87 290.30000000000007 42.65 289.98 43.54 C 289.66 44.43 289.5 45.4 289.5 46.44 C 289.5 47.48 289.66 48.419999999999995 289.98 49.32 C 290.3 50.22 290.75 50.99 291.33000000000004 51.64 C 291.91 52.29 292.61 52.8 293.45000000000005 53.17 C 294.28000000000003 53.550000000000004 295.21000000000004 53.74 296.23 53.74 C 297.25 53.74 298.18 53.550000000000004 299.01 53.17 C 299.84 52.79 300.55 52.28 301.14 51.64 C 301.72999999999996 51 302.19 50.22 302.51 49.32 C 302.83 48.42 302.99 47.46 302.99 46.44 M 284.63 46.44 C 284.63 44.769999999999996 284.92 43.23 285.5 41.82 C 286.08 40.410000000000004 286.88 39.19 287.92 38.17 C 288.95 37.15 290.18 36.35 291.6 35.79 C 293.02000000000004 35.22 294.57000000000005 34.94 296.23 34.94 C 297.89 34.94 299.47 35.22 300.90000000000003 35.79 C 302.32000000000005 36.36 303.55 37.15 304.58000000000004 38.17 C 305.61 39.190000000000005 306.42 40.410000000000004 307.00000000000006 41.82 C 307.58000000000004 43.23 307.87000000000006 44.77 307.87000000000006 46.44 C 307.87000000000006 48.10999999999999 307.58000000000004 49.65 307.00000000000006 51.059999999999995 C 306.4200000000001 52.46999999999999 305.62000000000006 53.69 304.58000000000004 54.709999999999994 C 303.55000000000007 55.73 302.32000000000005 56.529999999999994 300.90000000000003 57.089999999999996 C 299.48 57.66 297.92 57.94 296.23 57.94 C 294.54 57.94 293.02000000000004 57.66 291.6 57.089999999999996 C 290.18 56.519999999999996 288.95000000000005 55.73 287.92 54.709999999999994 C 286.89000000000004 53.68999999999999 286.08000000000004 52.46999999999999 285.5 51.059999999999995 C 284.92 49.65 284.63 48.10999999999999 284.63 46.44" stroke-linecap="round" />
</g>
		<g transform="matrix(1 0 0 1 75.34 -0.48)" id="path42"  >
<path style="stroke: none; stroke-width: 1; stroke-dasharray: none; stroke-linecap: butt; stroke-dashoffset: 0; stroke-linejoin: miter; stroke-miterlimit: 4; fill: rgb(255,255,255); fill-rule: nonzero; opacity: 1;" vector-effect="non-scaling-stroke"  transform=" translate(-319.2, -46.43)" d="M 311.34 35.31 L 327.07 35.31 L 327.07 39.38 L 316.07 39.38 L 316.07 44.21 L 326.84 44.21 L 326.84 48.28 L 316.07 48.28 L 316.07 57.55 L 311.34 57.55 L 311.34 35.31999999999999 Z" stroke-linecap="round" />
</g>
		<g transform="matrix(1 0 0 1 106.18 -0.48)" id="path44"  >
<path style="stroke: none; stroke-width: 1; stroke-dasharray: none; stroke-linecap: butt; stroke-dashoffset: 0; stroke-linejoin: miter; stroke-miterlimit: 4; fill: rgb(255,255,255); fill-rule: nonzero; opacity: 1;" vector-effect="non-scaling-stroke"  transform=" translate(-350.04, -46.43)" d="M 346.35 49.61 L 353.72 49.61 L 350.05 39.41 L 346.35 49.61 Z M 355.02 53.71 L 345.09 53.71 L 343.69 57.54 L 338.49 57.54 L 347.09000000000003 35.31 L 353.02000000000004 35.31 L 361.59000000000003 57.540000000000006 L 356.42 57.540000000000006 L 355.02000000000004 53.71000000000001 Z" stroke-linecap="round" />
</g>
		<g transform="matrix(1 0 0 1 128.8 -0.47)" id="path46"  >
<path style="stroke: none; stroke-width: 1; stroke-dasharray: none; stroke-linecap: butt; stroke-dashoffset: 0; stroke-linejoin: miter; stroke-miterlimit: 4; fill: rgb(255,255,255); fill-rule: nonzero; opacity: 1;" vector-effect="non-scaling-stroke"  transform=" translate(-372.66, -46.43)" d="M 376.76 42.44 C 376.76 41.51 376.45 40.76 375.83 40.21 C 375.21 39.660000000000004 374.43 39.38 373.5 39.38 L 368.47 39.38 L 368.47 45.510000000000005 L 373.5 45.510000000000005 C 374.43 45.510000000000005 375.21 45.230000000000004 375.83 44.68000000000001 C 376.45 44.13000000000001 376.76 43.38000000000001 376.76 42.45000000000001 M 363.73 35.31 L 374.13 35.31 C 375.33 35.31 376.4 35.5 377.33 35.88 C 378.26 36.260000000000005 379.05 36.77 379.68 37.43 C 380.31 38.089999999999996 380.79 38.85 381.11 39.71 C 381.43 40.58 381.59000000000003 41.5 381.59000000000003 42.480000000000004 C 381.59000000000003 43.46000000000001 381.43 44.35 381.11 45.21 C 380.79 46.08 380.31 46.83 379.68 47.480000000000004 C 379.05 48.13 378.26 48.64 377.33 49.010000000000005 C 376.4 49.39000000000001 375.33 49.580000000000005 374.13 49.580000000000005 L 368.46 49.580000000000005 L 368.46 57.550000000000004 L 363.72999999999996 57.550000000000004 C 363.72999999999996 57.550000000000004 363.72999999999996 35.32000000000001 363.72999999999996 35.32000000000001 Z" stroke-linecap="round" />
</g>
		<g transform="matrix(1 0 0 1 149.34 -0.47)" id="path48"  >
<path style="stroke: none; stroke-width: 1; stroke-dasharray: none; stroke-linecap: butt; stroke-dashoffset: 0; stroke-linejoin: miter; stroke-miterlimit: 4; fill: rgb(255,255,255); fill-rule: nonzero; opacity: 1;" vector-effect="non-scaling-stroke"  transform=" translate(-393.2, -46.43)" d="M 397.3 42.44 C 397.3 41.51 396.99 40.76 396.37 40.21 C 395.75 39.660000000000004 394.97 39.38 394.04 39.38 L 389.01000000000005 39.38 L 389.01000000000005 45.510000000000005 L 394.04 45.510000000000005 C 394.97 45.510000000000005 395.75 45.230000000000004 396.37 44.68000000000001 C 396.99 44.13000000000001 397.3 43.38000000000001 397.3 42.45000000000001 M 384.27 35.31 L 394.66999999999996 35.31 C 395.86999999999995 35.31 396.93999999999994 35.5 397.86999999999995 35.88 C 398.79999999999995 36.260000000000005 399.59 36.77 400.21999999999997 37.43 C 400.84999999999997 38.08 401.33 38.85 401.65 39.71 C 401.96999999999997 40.58 402.13 41.5 402.13 42.480000000000004 C 402.13 43.46000000000001 401.96999999999997 44.35 401.65 45.21 C 401.33 46.08 400.84999999999997 46.83 400.21999999999997 47.480000000000004 C 399.59 48.13 398.79999999999995 48.64 397.86999999999995 49.010000000000005 C 396.93999999999994 49.39000000000001 395.86999999999995 49.580000000000005 394.66999999999996 49.580000000000005 L 388.99999999999994 49.580000000000005 L 388.99999999999994 57.550000000000004 L 384.2699999999999 57.550000000000004 L 384.2699999999999 35.32000000000001 Z" stroke-linecap="round" />
</g>
		<g transform="matrix(1 0 0 1 168.02 -0.47)" id="path50"  >
<path style="stroke: none; stroke-width: 1; stroke-dasharray: none; stroke-linecap: butt; stroke-dashoffset: 0; stroke-linejoin: miter; stroke-miterlimit: 4; fill: rgb(255,255,255); fill-rule: nonzero; opacity: 1;" vector-effect="non-scaling-stroke"  transform=" translate(-411.88, -46.43)" d="M 404.81 35.31 L 409.54 35.31 L 409.54 53.38 L 418.94 53.38 L 418.94 57.550000000000004 L 404.81 57.550000000000004 L 404.81 35.32000000000001 Z" stroke-linecap="round" />
</g>
		<g transform="matrix(1 0 0 1 180.2 -0.48)" id="path52"  >
<path style="stroke: none; stroke-width: 1; stroke-dasharray: none; stroke-linecap: butt; stroke-dashoffset: 0; stroke-linejoin: miter; stroke-miterlimit: 4; fill: rgb(255,255,255); fill-rule: nonzero; opacity: 1;" vector-effect="non-scaling-stroke"  transform=" translate(-424.06, -46.43)" d="M 421.69 35.31 L 426.42 35.31 L 426.42 57.540000000000006 L 421.69 57.540000000000006 L 421.69 35.31 Z" stroke-linecap="round" />
</g>
		<g transform="matrix(1 0 0 1 195.05 -0.47)" id="path54"  >
<path style="stroke: none; stroke-width: 1; stroke-dasharray: none; stroke-linecap: butt; stroke-dashoffset: 0; stroke-linejoin: miter; stroke-miterlimit: 4; fill: rgb(255,255,255); fill-rule: nonzero; opacity: 1;" vector-effect="non-scaling-stroke"  transform=" translate(-438.91, -46.43)" d="M 431.04 35.31 L 446.77000000000004 35.31 L 446.77000000000004 39.38 L 435.77000000000004 39.38 L 435.77000000000004 44.21 L 446.54 44.21 L 446.54 48.28 L 435.77000000000004 48.28 L 435.77000000000004 53.45 L 446.77000000000004 53.45 L 446.77000000000004 57.550000000000004 L 431.04 57.550000000000004 L 431.04 35.32000000000001 Z" stroke-linecap="round" />
</g>
		<g transform="matrix(1 0 0 1 217.36 -0.48)" id="path56"  >
<path style="stroke: none; stroke-width: 1; stroke-dasharray: none; stroke-linecap: butt; stroke-dashoffset: 0; stroke-linejoin: miter; stroke-miterlimit: 4; fill: rgb(255,255,255); fill-rule: nonzero; opacity: 1;" vector-effect="non-scaling-stroke"  transform=" translate(-461.22, -46.43)" d="M 459.7 53.37 C 460.81 53.37 461.78999999999996 53.19 462.65 52.82 C 463.5 52.45 464.22999999999996 51.95 464.83 51.32 C 465.43 50.69 465.88 49.95 466.2 49.1 C 466.51 48.26 466.67 47.370000000000005 466.67 46.43 C 466.67 45.489999999999995 466.52000000000004 44.54 466.22 43.68 C 465.92 42.83 465.48 42.089999999999996 464.90000000000003 41.46 C 464.32000000000005 40.84 463.59000000000003 40.35 462.72 39.99 C 461.84000000000003 39.63 460.84000000000003 39.46 459.70000000000005 39.46 L 455.6700000000001 39.46 L 455.6700000000001 53.36 L 459.70000000000005 53.36 Z M 450.93 35.31 L 459.7 35.31 C 461.43 35.31 463.03 35.580000000000005 464.47999999999996 36.11 C 465.93999999999994 36.64 467.17999999999995 37.39 468.21 38.36 C 469.23999999999995 39.33 470.04999999999995 40.5 470.63 41.88 C 471.21 43.260000000000005 471.5 44.78 471.5 46.45 C 471.5 48.120000000000005 471.21 49.63 470.63 51 C 470.05 52.37 469.25 53.53 468.21 54.5 C 467.18 55.47 465.93 56.22 464.47999999999996 56.75 C 463.02 57.28 461.42999999999995 57.55 459.7 57.55 L 450.93 57.55 L 450.93 35.31999999999999 Z" stroke-linecap="round" />
</g>
</g>
</g>
</svg>