<?xml version="1.0" encoding="UTF-8" standalone="no" ?>
<!DOCTYPE svg PUBLIC "-//W3C//DTD SVG 1.1//EN" "http://www.w3.org/Graphics/SVG/1.1/DTD/svg11.dtd">
<svg xmlns="http://www.w3.org/2000/svg" xmlns:xlink="http://www.w3.org/1999/xlink" version="1.1" width="1080" height="1080" viewBox="0 0 1080 1080" xml:space="preserve">
<desc>Created with Fabric.js 5.2.4</desc>
<defs>
</defs>
<g transform="matrix(1 0 0 1 540 540)" id="e7576771-1309-40a5-af33-7cd548e1e246"  >
<rect style="stroke: none; stroke-width: 1; stroke-dasharray: none; stroke-linecap: butt; stroke-dashoffset: 0; stroke-linejoin: miter; stroke-miterlimit: 4; fill: rgb(255,255,255); fill-rule: nonzero; opacity: 1; visibility: hidden;" vector-effect="non-scaling-stroke"  x="-540" y="-540" rx="0" ry="0" width="1080" height="1080" />
</g>
<g transform="matrix(1 0 0 1 540 540)" id="d58bfb41-e18e-4a9e-bf84-be01aa9ade71"  >
</g>
<g transform="matrix(3.53 0 0 3.53 540 500.79)"  >
<g style="" vector-effect="non-scaling-stroke"   >
		<g transform="matrix(1 0 0 1 -92.56 11.17)" id="Pfad_12177"  >
<path style="stroke: none; stroke-width: 1; stroke-dasharray: none; stroke-linecap: butt; stroke-dashoffset: 0; stroke-linejoin: miter; stroke-miterlimit: 4; fill: rgb(255,255,255); fill-rule: nonzero; opacity: 1;" vector-effect="non-scaling-stroke"  transform=" translate(-45.74, -26.18)" d="M 48.44 27.79 C 48.44 29.279999999999998 47.41 29.91 45.73 29.91 L 43.029999999999994 29.91 L 43.029999999999994 22.44 L 45.49999999999999 22.44 C 47.43999999999999 22.44 47.989999999999995 23.360000000000003 47.989999999999995 24.44 C 48.019999999999996 25.040000000000003 47.709999999999994 25.62 47.199999999999996 25.93 C 47.98 26.21 48.48 26.96 48.44 27.79 M 45.589999999999996 23.21 L 43.839999999999996 23.21 L 43.839999999999996 25.67 L 45.69 25.67 C 46.419999999999995 25.67 47.19 25.55 47.19 24.490000000000002 C 47.19 23.430000000000003 46.589999999999996 23.200000000000003 45.589999999999996 23.200000000000003 M 47.63999999999999 27.730000000000004 C 47.63999999999999 26.530000000000005 46.63999999999999 26.420000000000005 45.769999999999996 26.420000000000005 L 43.839999999999996 26.420000000000005 L 43.839999999999996 29.140000000000004 L 45.8 29.140000000000004 C 46.76 29.140000000000004 47.64 28.930000000000003 47.64 27.730000000000004" stroke-linecap="round" />
</g>
		<g transform="matrix(1 0 0 1 -78.94 11.17)" id="Pfad_12178"  >
<path style="stroke: none; stroke-width: 1; stroke-dasharray: none; stroke-linecap: butt; stroke-dashoffset: 0; stroke-linejoin: miter; stroke-miterlimit: 4; fill: rgb(255,255,255); fill-rule: nonzero; opacity: 1;" vector-effect="non-scaling-stroke"  transform=" translate(-59.37, -26.17)" d="M 62.74 29.91 L 61.88 29.91 L 60.980000000000004 27.58 L 57.760000000000005 27.58 L 56.86000000000001 29.909999999999997 L 55.99000000000001 29.909999999999997 L 58.970000000000006 22.439999999999998 L 59.77 22.439999999999998 L 62.74 29.909999999999997 Z M 60.68 26.81 L 59.37 23.4 L 58.059999999999995 26.81 L 60.67999999999999 26.81 Z" stroke-linecap="round" />
</g>
		<g transform="matrix(1 0 0 1 -63.88 11.17)" id="Pfad_12179"  >
<path style="stroke: none; stroke-width: 1; stroke-dasharray: none; stroke-linecap: butt; stroke-dashoffset: 0; stroke-linejoin: miter; stroke-miterlimit: 4; fill: rgb(255,255,255); fill-rule: nonzero; opacity: 1;" vector-effect="non-scaling-stroke"  transform=" translate(-74.43, -26.18)" d="M 73.84 22.44 C 76.17 22.44 77.35000000000001 23.69 77.35000000000001 26.17 C 77.35000000000001 28.650000000000002 76.17 29.910000000000004 73.84 29.910000000000004 L 71.5 29.910000000000004 L 71.5 22.440000000000005 L 73.84 22.440000000000005 Z M 76.54 26.17 C 76.54 24.110000000000003 75.69000000000001 23.19 73.79 23.19 L 72.31 23.19 L 72.31 29.150000000000002 L 73.79 29.150000000000002 C 75.69000000000001 29.150000000000002 76.54 28.23 76.54 26.17" stroke-linecap="round" />
</g>
		<g transform="matrix(1 0 0 1 -49.98 11.16)" id="Pfad_12180"  >
<path style="stroke: none; stroke-width: 1; stroke-dasharray: none; stroke-linecap: butt; stroke-dashoffset: 0; stroke-linejoin: miter; stroke-miterlimit: 4; fill: rgb(255,255,255); fill-rule: nonzero; opacity: 1;" vector-effect="non-scaling-stroke"  transform=" translate(-88.32, -26.17)" d="M 86.77 25.67 L 90.21 25.67 L 90.21 26.450000000000003 L 86.77 26.450000000000003 L 86.77 29.140000000000004 L 90.67999999999999 29.140000000000004 L 90.67999999999999 29.900000000000006 L 85.97 29.900000000000006 L 85.97 22.430000000000007 L 90.67999999999999 22.430000000000007 L 90.67999999999999 23.19000000000001 L 86.77 23.19000000000001 L 86.77 25.660000000000007 Z" stroke-linecap="round" />
</g>
		<g transform="matrix(1 0 0 1 -35.95 11.17)" id="Pfad_12181"  >
<path style="stroke: none; stroke-width: 1; stroke-dasharray: none; stroke-linecap: butt; stroke-dashoffset: 0; stroke-linejoin: miter; stroke-miterlimit: 4; fill: rgb(255,255,255); fill-rule: nonzero; opacity: 1;" vector-effect="non-scaling-stroke"  transform=" translate(-102.35, -26.18)" d="M 105.44 22.44 L 105.44 29.91 L 104.53 29.91 L 100.06 23.62 L 100.06 29.91 L 99.26 29.91 L 99.26 22.44 L 100.18 22.44 L 104.64 28.73 L 104.64 22.44 L 105.44 22.44 Z" stroke-linecap="round" />
</g>
		<g transform="matrix(1 0 0 1 -22.04 11.07)" id="Rechteck_7320"  >
<rect style="stroke: none; stroke-width: 1; stroke-dasharray: none; stroke-linecap: butt; stroke-dashoffset: 0; stroke-linejoin: miter; stroke-miterlimit: 4; fill: rgb(255,255,255); fill-rule: nonzero; opacity: 1;" vector-effect="non-scaling-stroke"  x="-1.705" y="-0.39" rx="0" ry="0" width="3.41" height="0.78" />
</g>
		<g transform="matrix(1 0 0 1 -6.75 11.17)" id="Pfad_12182"  >
<path style="stroke: none; stroke-width: 1; stroke-dasharray: none; stroke-linecap: butt; stroke-dashoffset: 0; stroke-linejoin: miter; stroke-miterlimit: 4; fill: rgb(255,255,255); fill-rule: nonzero; opacity: 1;" vector-effect="non-scaling-stroke"  transform=" translate(-131.55, -26.18)" d="M 136.74 22.44 L 134.33 29.91 L 133.51000000000002 29.91 L 131.55 23.82 L 129.59 29.91 L 128.76 29.91 L 126.35999999999999 22.44 L 127.20999999999998 22.44 L 129.17 28.69 L 131.14 22.44 L 131.94 22.44 L 133.9 28.69 L 135.87 22.44 L 136.72 22.44 Z" stroke-linecap="round" />
</g>
		<g transform="matrix(1 0 0 1 8.69 10.45)" id="Pfad_12183"  >
<path style="stroke: none; stroke-width: 1; stroke-dasharray: none; stroke-linecap: butt; stroke-dashoffset: 0; stroke-linejoin: miter; stroke-miterlimit: 4; fill: rgb(255,255,255); fill-rule: nonzero; opacity: 1;" vector-effect="non-scaling-stroke"  transform=" translate(-147, -25.46)" d="M 150.02 22.44 L 150.02 26.840000000000003 C 150.02 28.880000000000003 148.95000000000002 30.000000000000004 146.99 30.000000000000004 C 145.03 30.000000000000004 143.96 28.880000000000003 143.96 26.840000000000003 L 143.96 22.440000000000005 L 144.76000000000002 22.440000000000005 L 144.76000000000002 26.890000000000004 C 144.76000000000002 28.490000000000006 145.49 29.260000000000005 146.99 29.260000000000005 C 148.49 29.260000000000005 149.22 28.490000000000006 149.22 26.890000000000004 L 149.22 22.440000000000005 L 150.03 22.440000000000005 Z M 145.71 20.91 L 146.61 20.91 L 146.61 21.81 L 145.71 21.81 L 145.71 20.91 Z M 147.37 20.91 L 148.27 20.91 L 148.27 21.81 L 147.37 21.81 L 147.37 20.91 Z" stroke-linecap="round" />
</g>
		<g transform="matrix(1 0 0 1 23.72 11.17)" id="Pfad_12184"  >
<path style="stroke: none; stroke-width: 1; stroke-dasharray: none; stroke-linecap: butt; stroke-dashoffset: 0; stroke-linejoin: miter; stroke-miterlimit: 4; fill: rgb(255,255,255); fill-rule: nonzero; opacity: 1;" vector-effect="non-scaling-stroke"  transform=" translate(-162.02, -26.17)" d="M 164.82 29.91 L 163.87 29.91 L 161.92000000000002 26.9 L 160.02 26.9 L 160.02 29.909999999999997 L 159.22 29.909999999999997 L 159.22 22.439999999999998 L 161.96 22.439999999999998 C 163.57000000000002 22.439999999999998 164.49 23.179999999999996 164.49 24.61 C 164.55 25.66 163.81 26.59 162.78 26.77 L 164.82 29.91 Z M 163.68 24.67 C 163.68 23.990000000000002 163.48000000000002 23.200000000000003 161.91 23.200000000000003 L 160.02 23.200000000000003 L 160.02 26.130000000000003 L 161.91 26.130000000000003 C 163.48 26.130000000000003 163.68 25.35 163.68 24.660000000000004" stroke-linecap="round" />
</g>
		<g transform="matrix(1 0 0 1 37.16 11.17)" id="Pfad_12185"  >
<path style="stroke: none; stroke-width: 1; stroke-dasharray: none; stroke-linecap: butt; stroke-dashoffset: 0; stroke-linejoin: miter; stroke-miterlimit: 4; fill: rgb(255,255,255); fill-rule: nonzero; opacity: 1;" vector-effect="non-scaling-stroke"  transform=" translate(-175.46, -26.17)" d="M 178.49 22.44 L 178.49 23.220000000000002 L 175.86 23.220000000000002 L 175.86 29.900000000000002 L 175.06 29.900000000000002 L 175.06 23.220000000000002 L 172.42000000000002 23.220000000000002 L 172.42000000000002 22.44 L 178.50000000000003 22.44 Z" stroke-linecap="round" />
</g>
		<g transform="matrix(1 0 0 1 51.08 11.17)" id="Pfad_12186"  >
<path style="stroke: none; stroke-width: 1; stroke-dasharray: none; stroke-linecap: butt; stroke-dashoffset: 0; stroke-linejoin: miter; stroke-miterlimit: 4; fill: rgb(255,255,255); fill-rule: nonzero; opacity: 1;" vector-effect="non-scaling-stroke"  transform=" translate(-189.38, -26.17)" d="M 192.41 22.44 L 192.41 23.220000000000002 L 189.78 23.220000000000002 L 189.78 29.900000000000002 L 188.98 29.900000000000002 L 188.98 23.220000000000002 L 186.34 23.220000000000002 L 186.34 22.44 L 192.42000000000002 22.44 Z" stroke-linecap="round" />
</g>
		<g transform="matrix(1 0 0 1 64.75 11.16)" id="Pfad_12187"  >
<path style="stroke: none; stroke-width: 1; stroke-dasharray: none; stroke-linecap: butt; stroke-dashoffset: 0; stroke-linejoin: miter; stroke-miterlimit: 4; fill: rgb(255,255,255); fill-rule: nonzero; opacity: 1;" vector-effect="non-scaling-stroke"  transform=" translate(-203.06, -26.17)" d="M 201.5 25.67 L 204.94 25.67 L 204.94 26.450000000000003 L 201.5 26.450000000000003 L 201.5 29.140000000000004 L 205.41 29.140000000000004 L 205.41 29.900000000000006 L 200.7 29.900000000000006 L 200.7 22.430000000000007 L 205.41 22.430000000000007 L 205.41 23.19000000000001 L 201.5 23.19000000000001 L 201.5 25.660000000000007 Z" stroke-linecap="round" />
</g>
		<g transform="matrix(1 0 0 1 79.17 11.17)" id="Pfad_12188"  >
<path style="stroke: none; stroke-width: 1; stroke-dasharray: none; stroke-linecap: butt; stroke-dashoffset: 0; stroke-linejoin: miter; stroke-miterlimit: 4; fill: rgb(255,255,255); fill-rule: nonzero; opacity: 1;" vector-effect="non-scaling-stroke"  transform=" translate(-217.47, -26.17)" d="M 220.9 22.44 L 220.9 29.91 L 220.1 29.91 L 220.1 23.759999999999998 L 217.46 27.569999999999997 L 214.83 23.759999999999998 L 214.83 29.909999999999997 L 214.03 29.909999999999997 L 214.03 22.439999999999998 L 214.9 22.439999999999998 L 217.46 26.24 L 220.04000000000002 22.439999999999998 L 220.90000000000003 22.439999999999998 Z" stroke-linecap="round" />
</g>
		<g transform="matrix(1 0 0 1 94.35 11.17)" id="Pfad_12189"  >
<path style="stroke: none; stroke-width: 1; stroke-dasharray: none; stroke-linecap: butt; stroke-dashoffset: 0; stroke-linejoin: miter; stroke-miterlimit: 4; fill: rgb(255,255,255); fill-rule: nonzero; opacity: 1;" vector-effect="non-scaling-stroke"  transform=" translate(-232.65, -26.18)" d="M 235.35 27.79 C 235.35 29.279999999999998 234.32 29.91 232.64 29.91 L 229.94 29.91 L 229.94 22.44 L 232.41 22.44 C 234.35 22.44 234.9 23.360000000000003 234.9 24.44 C 234.93 25.040000000000003 234.62 25.62 234.11 25.93 C 234.89000000000001 26.21 235.39000000000001 26.96 235.35000000000002 27.79 M 232.50000000000003 23.21 L 230.75000000000003 23.21 L 230.75000000000003 25.67 L 232.60000000000002 25.67 C 233.33 25.67 234.10000000000002 25.55 234.10000000000002 24.490000000000002 C 234.10000000000002 23.430000000000003 233.50000000000003 23.200000000000003 232.50000000000003 23.200000000000003 M 234.55000000000004 27.730000000000004 C 234.55000000000004 26.530000000000005 233.55000000000004 26.420000000000005 232.68000000000004 26.420000000000005 L 230.75000000000003 26.420000000000005 L 230.75000000000003 29.140000000000004 L 232.71000000000004 29.140000000000004 C 233.67000000000004 29.140000000000004 234.55000000000004 28.930000000000003 234.55000000000004 27.730000000000004" stroke-linecap="round" />
</g>
		<g transform="matrix(1 0 0 1 107.96 11.16)" id="Pfad_12190"  >
<path style="stroke: none; stroke-width: 1; stroke-dasharray: none; stroke-linecap: butt; stroke-dashoffset: 0; stroke-linejoin: miter; stroke-miterlimit: 4; fill: rgb(255,255,255); fill-rule: nonzero; opacity: 1;" vector-effect="non-scaling-stroke"  transform=" translate(-246.26, -26.17)" d="M 244.71 25.67 L 248.15 25.67 L 248.15 26.450000000000003 L 244.71 26.450000000000003 L 244.71 29.140000000000004 L 248.62 29.140000000000004 L 248.62 29.900000000000006 L 243.91 29.900000000000006 L 243.91 22.430000000000007 L 248.62 22.430000000000007 L 248.62 23.19000000000001 L 244.71 23.19000000000001 L 244.71 25.660000000000007 Z" stroke-linecap="round" />
</g>
		<g transform="matrix(1 0 0 1 122.02 11.17)" id="Pfad_12191"  >
<path style="stroke: none; stroke-width: 1; stroke-dasharray: none; stroke-linecap: butt; stroke-dashoffset: 0; stroke-linejoin: miter; stroke-miterlimit: 4; fill: rgb(255,255,255); fill-rule: nonzero; opacity: 1;" vector-effect="non-scaling-stroke"  transform=" translate(-260.32, -26.17)" d="M 263.11 29.91 L 262.16 29.91 L 260.21000000000004 26.9 L 258.31000000000006 26.9 L 258.31000000000006 29.909999999999997 L 257.51000000000005 29.909999999999997 L 257.51000000000005 22.439999999999998 L 260.25000000000006 22.439999999999998 C 261.86000000000007 22.439999999999998 262.78000000000003 23.179999999999996 262.78000000000003 24.61 C 262.84000000000003 25.66 262.1 26.59 261.07000000000005 26.77 L 263.12000000000006 29.91 Z M 261.97 24.67 C 261.97 23.990000000000002 261.77000000000004 23.200000000000003 260.20000000000005 23.200000000000003 L 258.31000000000006 23.200000000000003 L 258.31000000000006 26.130000000000003 L 260.20000000000005 26.130000000000003 C 261.77000000000004 26.130000000000003 261.97 25.35 261.97 24.660000000000004" stroke-linecap="round" />
</g>
		<g transform="matrix(1 0 0 1 135.27 11.17)" id="Pfad_12192"  >
<path style="stroke: none; stroke-width: 1; stroke-dasharray: none; stroke-linecap: butt; stroke-dashoffset: 0; stroke-linejoin: miter; stroke-miterlimit: 4; fill: rgb(255,255,255); fill-rule: nonzero; opacity: 1;" vector-effect="non-scaling-stroke"  transform=" translate(-273.57, -26.17)" d="M 273.99 25.69 L 276.6 25.69 L 276.6 29.42 C 275.79 29.810000000000002 274.90000000000003 30.01 273.99 30 C 271.69 30 270.53000000000003 28.71 270.53000000000003 26.17 C 270.53000000000003 23.630000000000003 271.69000000000005 22.340000000000003 273.99 22.340000000000003 C 274.8 22.340000000000003 275.6 22.500000000000004 276.34000000000003 22.810000000000002 L 276.34000000000003 23.590000000000003 C 275.63000000000005 23.270000000000003 274.86 23.110000000000003 274.08000000000004 23.110000000000003 C 272.19000000000005 23.110000000000003 271.34000000000003 24.060000000000002 271.34000000000003 26.17 C 271.34000000000003 28.28 272.19000000000005 29.23 274.08000000000004 29.23 C 274.66 29.23 275.24000000000007 29.14 275.79 28.96 L 275.79 26.47 L 273.99 26.47 L 273.99 25.689999999999998 Z" stroke-linecap="round" />
</g>
		<g transform="matrix(1 0 0 1 -91.47 -9.38)" id="Pfad_12193"  >
<path style="stroke: none; stroke-width: 1; stroke-dasharray: none; stroke-linecap: butt; stroke-dashoffset: 0; stroke-linejoin: miter; stroke-miterlimit: 4; fill: rgb(255,255,255); fill-rule: nonzero; opacity: 1;" vector-effect="non-scaling-stroke"  transform=" translate(-46.84, -5.62)" d="M 45.92 2.37 L 45.92 4.45 L 50 4.45 L 50 6.82 L 45.92 6.82 L 45.92 11.22 L 43.03 11.22 L 43.03 0.02 L 50.64 0.02 L 50.64 2.37 L 45.92 2.37 Z" stroke-linecap="round" />
</g>
		<g transform="matrix(1 0 0 1 -73.88 -9.38)" id="Rechteck_7321"  >
<rect style="stroke: none; stroke-width: 1; stroke-dasharray: none; stroke-linecap: butt; stroke-dashoffset: 0; stroke-linejoin: miter; stroke-miterlimit: 4; fill: rgb(255,255,255); fill-rule: nonzero; opacity: 1;" vector-effect="non-scaling-stroke"  x="-1.445" y="-5.6" rx="0" ry="0" width="2.89" height="11.2" />
</g>
		<g transform="matrix(1 0 0 1 -54.91 -9.38)" id="Pfad_12194"  >
<path style="stroke: none; stroke-width: 1; stroke-dasharray: none; stroke-linecap: butt; stroke-dashoffset: 0; stroke-linejoin: miter; stroke-miterlimit: 4; fill: rgb(255,255,255); fill-rule: nonzero; opacity: 1;" vector-effect="non-scaling-stroke"  transform=" translate(-83.39, -5.62)" d="M 87.32 8.61 L 87.32 11.219999999999999 L 79.46 11.219999999999999 L 79.46 0.02 L 82.35 0.02 L 82.35 8.62 L 87.32 8.62 Z" stroke-linecap="round" />
</g>
		<g transform="matrix(1 0 0 1 11.9 -9.38)" id="Pfad_12195"  >
<path style="stroke: none; stroke-width: 1; stroke-dasharray: none; stroke-linecap: butt; stroke-dashoffset: 0; stroke-linejoin: miter; stroke-miterlimit: 4; fill: rgb(255,255,255); fill-rule: nonzero; opacity: 1;" vector-effect="non-scaling-stroke"  transform=" translate(-150.2, -5.62)" d="M 151.64 11.22 L 148.42 6.830000000000001 L 148 7.300000000000001 L 148 11.22 L 145.11 11.22 L 145.11 0.02 L 148 0.02 L 148 3.18 L 151.07 0.02 L 154.97 0.02 L 150.49 4.68 L 155.29000000000002 11.219999999999999 L 151.65000000000003 11.219999999999999 Z" stroke-linecap="round" />
</g>
		<g transform="matrix(1 0 0 1 33.93 -9.38)" id="Pfad_12196"  >
<path style="stroke: none; stroke-width: 1; stroke-dasharray: none; stroke-linecap: butt; stroke-dashoffset: 0; stroke-linejoin: miter; stroke-miterlimit: 4; fill: rgb(255,255,255); fill-rule: nonzero; opacity: 1;" vector-effect="non-scaling-stroke"  transform=" translate(-172.23, -5.62)" d="M 178.04 11.22 L 174.92999999999998 11.22 L 173.98 8.190000000000001 L 170.48 8.190000000000001 L 169.53 11.22 L 166.42 11.22 L 170.34 0.02 L 174.11 0.02 L 178.04000000000002 11.219999999999999 Z M 173.28 5.870000000000001 L 172.23 2.390000000000001 L 171.19 5.870000000000001 L 173.27 5.870000000000001 Z" stroke-linecap="round" />
</g>
		<g transform="matrix(1 0 0 1 -11.14 -9.38)" id="Pfad_12197"  >
<path style="stroke: none; stroke-width: 1; stroke-dasharray: none; stroke-linecap: butt; stroke-dashoffset: 0; stroke-linejoin: miter; stroke-miterlimit: 4; fill: rgb(255,255,255); fill-rule: nonzero; opacity: 1;" vector-effect="non-scaling-stroke"  transform=" translate(-127.16, -5.62)" d="M 132.97 11.22 L 129.85999999999999 11.22 L 128.91 8.190000000000001 L 125.41 8.190000000000001 L 124.46 11.22 L 121.35 11.22 L 125.28 0.02 L 129.05 0.02 L 132.97 11.219999999999999 Z M 128.21 5.870000000000001 L 127.16000000000001 2.390000000000001 L 126.12 5.870000000000001 L 128.21 5.870000000000001 Z" stroke-linecap="round" />
</g>
		<g transform="matrix(1 0 0 1 56.32 -9.4)" id="Pfad_12198"  >
<path style="stroke: none; stroke-width: 1; stroke-dasharray: none; stroke-linecap: butt; stroke-dashoffset: 0; stroke-linejoin: miter; stroke-miterlimit: 4; fill: rgb(255,255,255); fill-rule: nonzero; opacity: 1;" vector-effect="non-scaling-stroke"  transform=" translate(-194.63, -5.6)" d="M 199.3 5.61 C 199.3 9.27 197.45000000000002 11.2 193.98000000000002 11.2 L 189.95000000000002 11.2 L 189.95000000000002 0 L 193.98000000000002 0 C 197.45 0 199.3 1.93 199.3 5.61 M 196.41000000000003 5.66 C 196.41000000000003 3.6100000000000003 195.71000000000004 2.4000000000000004 193.97000000000003 2.4000000000000004 L 192.83000000000004 2.4000000000000004 L 192.83000000000004 8.82 L 193.97000000000003 8.82 C 195.70000000000002 8.82 196.41000000000003 7.680000000000001 196.41000000000003 5.65" stroke-linecap="round" />
</g>
		<g transform="matrix(1 0 0 1 77.15 -9.38)" id="Pfad_12199"  >
<path style="stroke: none; stroke-width: 1; stroke-dasharray: none; stroke-linecap: butt; stroke-dashoffset: 0; stroke-linejoin: miter; stroke-miterlimit: 4; fill: rgb(255,255,255); fill-rule: nonzero; opacity: 1;" vector-effect="non-scaling-stroke"  transform=" translate(-215.45, -5.62)" d="M 214.44 2.37 L 214.44 4.4399999999999995 L 218.7 4.4399999999999995 L 218.7 6.799999999999999 L 214.44 6.799999999999999 L 214.44 8.849999999999998 L 219.35999999999999 8.849999999999998 L 219.35999999999999 11.219999999999999 L 211.54999999999998 11.219999999999999 L 211.54999999999998 0.02 L 219.35999999999999 0.02 L 219.35999999999999 2.37 L 214.44 2.37 Z" stroke-linecap="round" />
</g>
		<g transform="matrix(1 0 0 1 98.46 -9.38)" id="Pfad_12200"  >
<path style="stroke: none; stroke-width: 1; stroke-dasharray: none; stroke-linecap: butt; stroke-dashoffset: 0; stroke-linejoin: miter; stroke-miterlimit: 4; fill: rgb(255,255,255); fill-rule: nonzero; opacity: 1;" vector-effect="non-scaling-stroke"  transform=" translate(-236.76, -5.62)" d="M 242.24 0.02 L 242.24 11.219999999999999 L 239.35000000000002 11.219999999999999 L 239.35000000000002 4.439999999999999 L 236.76000000000002 8.149999999999999 L 234.17000000000002 4.439999999999999 L 234.17000000000002 11.219999999999999 L 231.28000000000003 11.219999999999999 L 231.28000000000003 0.02 L 234.12000000000003 0.02 L 236.76000000000002 3.83 L 239.4 0.02 L 242.24 0.02 Z" stroke-linecap="round" />
</g>
		<g transform="matrix(1 0 0 1 -33.84 -9.38)" id="Pfad_12201"  >
<path style="stroke: none; stroke-width: 1; stroke-dasharray: none; stroke-linecap: butt; stroke-dashoffset: 0; stroke-linejoin: miter; stroke-miterlimit: 4; fill: rgb(255,255,255); fill-rule: nonzero; opacity: 1;" vector-effect="non-scaling-stroke"  transform=" translate(-104.46, -5.62)" d="M 109.94 0.02 L 109.94 11.219999999999999 L 107.05 11.219999999999999 L 107.05 4.469999999999999 L 104.46 8.18 L 101.86999999999999 4.47 L 101.86999999999999 11.219999999999999 L 98.97999999999999 11.219999999999999 L 98.97999999999999 0.02 L 101.82 0.02 L 104.46 3.83 L 107.1 0.02 L 109.94 0.02 Z" stroke-linecap="round" />
</g>
		<g transform="matrix(1 0 0 1 117.35 -9.38)" id="Rechteck_7322"  >
<rect style="stroke: none; stroke-width: 1; stroke-dasharray: none; stroke-linecap: butt; stroke-dashoffset: 0; stroke-linejoin: miter; stroke-miterlimit: 4; fill: rgb(255,255,255); fill-rule: nonzero; opacity: 1;" vector-effect="non-scaling-stroke"  x="-1.445" y="-5.6" rx="0" ry="0" width="2.89" height="11.2" />
</g>
		<g transform="matrix(1 0 0 1 134.38 -9.38)" id="Pfad_12202"  >
<path style="stroke: none; stroke-width: 1; stroke-dasharray: none; stroke-linecap: butt; stroke-dashoffset: 0; stroke-linejoin: miter; stroke-miterlimit: 4; fill: rgb(255,255,255); fill-rule: nonzero; opacity: 1;" vector-effect="non-scaling-stroke"  transform=" translate(-272.68, -5.62)" d="M 271.66 2.37 L 271.66 4.4399999999999995 L 275.92 4.4399999999999995 L 275.92 6.799999999999999 L 271.66 6.799999999999999 L 271.66 8.849999999999998 L 276.58000000000004 8.849999999999998 L 276.58000000000004 11.219999999999999 L 268.77000000000004 11.219999999999999 L 268.77000000000004 0.02 L 276.58000000000004 0.02 L 276.58000000000004 2.37 L 271.66 2.37 Z" stroke-linecap="round" />
</g>
		<g transform="matrix(1 0 0 1 -123.31 0.01)" id="Rechteck_7323"  >
<rect style="stroke: none; stroke-width: 1; stroke-dasharray: none; stroke-linecap: butt; stroke-dashoffset: 0; stroke-linejoin: miter; stroke-miterlimit: 4; fill: rgb(255,255,255); fill-rule: nonzero; opacity: 1;" vector-effect="non-scaling-stroke"  x="-14.99" y="-14.99" rx="0" ry="0" width="29.98" height="29.98" />
</g>
		<g transform="matrix(1 0 0 1 -123.31 0.01)" id="Pfad_12203" clip-path="url(#CLIPPATH_3)"  >
<clipPath id="CLIPPATH_3" >
	<rect transform="matrix(1 0 0 1 0 0)" id="clippath" x="-14.99" y="-14.99" rx="0" ry="0" width="29.98" height="29.98" />
</clipPath>
<path style="stroke: none; stroke-width: 1; stroke-dasharray: none; stroke-linecap: butt; stroke-dashoffset: 0; stroke-linejoin: miter; stroke-miterlimit: 4; fill: rgb(255,255,255); fill-rule: nonzero; opacity: 1;" vector-effect="non-scaling-stroke"  transform=" translate(-14.99, -15.01)" d="M 29.98 30 L 0 30 L 29.98 0.02 L 29.98 30 Z" stroke-linecap="round" />
</g>
		<g transform="matrix(1 0 0 1 -123.31 0.01)" id="Pfad_12204"  >
<path style="stroke: none; stroke-width: 1; stroke-dasharray: none; stroke-linecap: butt; stroke-dashoffset: 0; stroke-linejoin: miter; stroke-miterlimit: 4; fill: rgb(255,255,255); fill-rule: nonzero; opacity: 1;" vector-effect="non-scaling-stroke"  transform=" translate(-14.99, -15.01)" d="M 0 0.02 L 0 30 L 29.98 0.02 L 0 0.02 Z" stroke-linecap="round" />
</g>
</g>
</g>
</svg>