<?xml version="1.0" encoding="UTF-8" standalone="no" ?>
<!DOCTYPE svg PUBLIC "-//W3C//DTD SVG 1.1//EN" "http://www.w3.org/Graphics/SVG/1.1/DTD/svg11.dtd">
<svg xmlns="http://www.w3.org/2000/svg" xmlns:xlink="http://www.w3.org/1999/xlink" version="1.1" width="1080" height="1080" viewBox="0 0 1080 1080" xml:space="preserve">
<desc>Created with Fabric.js 5.2.4</desc>
<defs>
</defs>
<rect x="0" y="0" width="100%" height="100%" fill="transparent"></rect>
<g transform="matrix(1 0 0 1 540 540)" id="e7576771-1309-40a5-af33-7cd548e1e246"  >
<rect style="stroke: none; stroke-width: 1; stroke-dasharray: none; stroke-linecap: butt; stroke-dashoffset: 0; stroke-linejoin: miter; stroke-miterlimit: 4; fill: rgb(255,255,255); fill-rule: nonzero; opacity: 1; visibility: hidden;" vector-effect="non-scaling-stroke"  x="-540" y="-540" rx="0" ry="0" width="1080" height="1080" />
</g>
<g transform="matrix(1 0 0 1 540 540)" id="d58bfb41-e18e-4a9e-bf84-be01aa9ade71"  >
</g>
<g transform="matrix(4.67 0 0 4.67 540 496.55)"  >
<g style="" vector-effect="non-scaling-stroke"   >
		<g transform="matrix(1 0 0 1 -62.49 -0.54)" id="Path"  >
<polygon style="stroke: none; stroke-width: 1; stroke-dasharray: none; stroke-linecap: butt; stroke-dashoffset: 0; stroke-linejoin: miter; stroke-miterlimit: 4; fill: rgb(255,255,255); fill-rule: nonzero; opacity: 1;" vector-effect="non-scaling-stroke"  points="-4.65,-4.41 -2.29,-4.41 0.01,2.42 2.29,-4.41 4.65,-4.41 4.65,4.41 3.07,4.41 3.07,-2.23 0.88,4.41 -0.86,4.41 -3.07,-2.23 -3.07,4.41 -4.65,4.41 -4.65,-4.41 " />
</g>
		<g transform="matrix(1 0 0 1 -55.15 -0.65)" id="Shape"  >
<path style="stroke: none; stroke-width: 1; stroke-dasharray: none; stroke-linecap: butt; stroke-dashoffset: 0; stroke-linejoin: miter; stroke-miterlimit: 4; fill: rgb(255,255,255); fill-rule: nonzero; opacity: 1;" vector-effect="non-scaling-stroke"  transform=" translate(-11.99, -4.52)" d="M 11.1487017 0 L 12.826091 0 L 12.826091 1.65203345 L 11.1487017 1.65203345 L 11.1487017 0 L 11.1487017 0 Z M 11.1739566 2.53476392 L 12.8009917 2.53476392 L 12.8009917 9.0422138 L 11.1739566 9.0422138 L 11.1739566 2.53476392 Z" stroke-linecap="round" />
</g>
		<g transform="matrix(1 0 0 1 -49.69 0.56)" id="Path"  >
<path style="stroke: none; stroke-width: 1; stroke-dasharray: none; stroke-linecap: butt; stroke-dashoffset: 0; stroke-linejoin: miter; stroke-miterlimit: 4; fill: rgb(255,255,255); fill-rule: nonzero; opacity: 1;" vector-effect="non-scaling-stroke"  transform=" translate(-17.45, -5.73)" d="M 14.5410708 2.53476392 L 16.1048519 2.53476392 L 16.1048519 3.55638956 C 16.4706201 2.81235971 17.202137 2.42133643 18.185814 2.42133643 C 19.6361425 2.42133643 20.3549347 3.29153735 20.3549347 4.76704805 L 20.3549347 9.04219435 L 18.7280942 9.04219435 L 18.7280942 5.05717339 C 18.7280942 4.26259729 18.2741672 3.85904446 17.592985 3.85904446 C 16.7480156 3.85904446 16.1553812 4.43910058 16.1553812 5.51107791 L 16.1553812 9.04219435 L 14.5410708 9.04219435 L 14.5410708 2.53474446 L 14.5410708 2.53476392 Z" stroke-linecap="round" />
</g>
		<g transform="matrix(1 0 0 1 -44.29 -0.65)" id="Shape"  >
<path style="stroke: none; stroke-width: 1; stroke-dasharray: none; stroke-linecap: butt; stroke-dashoffset: 0; stroke-linejoin: miter; stroke-miterlimit: 4; fill: rgb(255,255,255); fill-rule: nonzero; opacity: 1;" vector-effect="non-scaling-stroke"  transform=" translate(-22.85, -4.52)" d="M 22.0070691 0 L 23.6844584 0 L 23.6844584 1.65203345 L 22.0070691 1.65203345 L 22.0070691 0 L 22.0070691 0 Z M 22.0323435 2.53476392 L 23.6591841 2.53476392 L 23.6591841 9.0422138 L 22.0323435 9.0422138 L 22.0323435 2.53476392 Z" stroke-linecap="round" />
</g>
		<g transform="matrix(1 0 0 1 -39.35 0.63)" id="Path"  >
<path style="stroke: none; stroke-width: 1; stroke-dasharray: none; stroke-linecap: butt; stroke-dashoffset: 0; stroke-linejoin: miter; stroke-miterlimit: 4; fill: rgb(255,255,255); fill-rule: nonzero; opacity: 1;" vector-effect="non-scaling-stroke"  transform=" translate(-27.79, -5.8)" d="M 24.9708052 7.3396341 L 26.5472916 7.01188119 C 26.6607247 7.642289 27.1904747 7.93241434 27.9848954 7.93241434 C 28.6660776 7.93241434 29.044376 7.71808891 29.044376 7.27673341 C 29.044376 6.79736121 28.6155289 6.65866059 28.0101698 6.5452331 L 27.1526701 6.39380838 C 26.1562685 6.21730509 25.0717081 5.83900592 25.0717081 4.43910058 C 25.0717081 3.11499514 26.055385 2.42131697 27.6824202 2.42131697 C 29.1956331 2.42131697 30.2298587 3.02664622 30.4569195 4.25004827 L 28.905688 4.57780119 C 28.8426091 3.95992294 28.375938 3.65726804 27.6193412 3.65726804 C 26.9509032 3.65726804 26.6104094 3.90939614 26.6104094 4.32567309 C 26.6104094 4.80485073 27.0139821 4.96882446 27.6193412 5.08225195 L 28.6408227 5.27149881 C 29.6244996 5.44800211 30.6081571 5.81375226 30.6081571 7.11277912 C 30.6081571 8.51248991 29.4732425 9.18091441 27.9470909 9.18091441 C 26.5598412 9.18091441 25.2609448 8.65119053 24.9708052 7.3396341 L 24.9708052 7.3396341 Z" stroke-linecap="round" />
</g>
		<g transform="matrix(1 0 0 1 -33.88 -0.35)" id="Path"  >
<path style="stroke: none; stroke-width: 1; stroke-dasharray: none; stroke-linecap: butt; stroke-dashoffset: 0; stroke-linejoin: miter; stroke-miterlimit: 4; fill: rgb(255,255,255); fill-rule: nonzero; opacity: 1;" vector-effect="non-scaling-stroke"  transform=" translate(-33.26, -4.82)" d="M 32.2855269 7.18838448 L 32.2855269 3.95992294 L 31.1631426 3.95992294 L 31.1631426 2.53474446 L 32.2855269 2.53474446 L 32.2855269 1.04668475 L 33.9125621 0.592780233 L 33.9125621 2.53474446 L 35.2241832 2.53474446 L 35.2241832 3.95992294 L 33.9125621 3.95992294 L 33.9125621 6.92351281 C 33.9125621 7.41541456 34.0765439 7.61719098 34.5810001 7.61719098 L 35.3628907 7.61719098 L 35.3628907 9.04217489 L 34.1396228 9.04217489 C 32.9036302 9.04217489 32.2855269 8.43684565 32.2855269 7.18836502 L 32.2855269 7.18838448 Z" stroke-linecap="round" />
</g>
		<g transform="matrix(1 0 0 1 -27.85 0.63)" id="Shape"  >
<path style="stroke: none; stroke-width: 1; stroke-dasharray: none; stroke-linecap: butt; stroke-dashoffset: 0; stroke-linejoin: miter; stroke-miterlimit: 4; fill: rgb(255,255,255); fill-rule: nonzero; opacity: 1;" vector-effect="non-scaling-stroke"  transform=" translate(-39.29, -5.8)" d="M 36.2331345 5.87682806 C 36.2331345 3.90939614 37.3051647 2.42133643 39.3733826 2.42133643 C 41.4921491 2.42133643 42.3498628 3.94721828 42.3498628 5.82630127 L 42.3498628 6.24257821 L 37.8221705 6.24257821 C 37.9230734 7.32708509 38.452804 7.86933854 39.4364809 7.86933854 C 40.1680173 7.86933854 40.6093946 7.59193731 40.811181 7.03695975 L 42.3371381 7.36488777 C 41.9335653 8.55029259 40.8995342 9.18089496 39.4112066 9.18089496 C 37.5069511 9.18089496 36.2331345 7.99549014 36.2331345 5.87682806 L 36.2331345 5.87682806 Z M 40.7606322 5.14534721 C 40.710278 4.22481406 40.2689008 3.73289285 39.3733826 3.73289285 C 38.4778643 3.73289285 38.0114073 4.22479461 37.8599751 5.14534721 L 40.7606322 5.14534721 Z" stroke-linecap="round" />
</g>
		<g transform="matrix(1 0 0 1 -21.56 0.58)" id="Path"  >
<path style="stroke: none; stroke-width: 1; stroke-dasharray: none; stroke-linecap: butt; stroke-dashoffset: 0; stroke-linejoin: miter; stroke-miterlimit: 4; fill: rgb(255,255,255); fill-rule: nonzero; opacity: 1;" vector-effect="non-scaling-stroke"  transform=" translate(-45.58, -5.75)" d="M 43.7118381 2.53476392 L 45.2755998 2.53476392 L 45.2755998 3.69509018 C 45.4899358 2.95106032 46.0449407 2.45915856 46.8773605 2.45915856 L 47.4449151 2.45915856 L 47.4449151 4.04831077 L 46.8646358 4.04831077 C 45.754801 4.04831077 45.3261485 4.7039917 45.3261485 5.83904484 L 45.3261485 9.04223326 L 43.7118381 9.04223326 L 43.7118381 2.53478338 L 43.7118381 2.53476392 Z" stroke-linecap="round" />
</g>
		<g transform="matrix(1 0 0 1 -17.77 -0.65)" id="Shape"  >
<path style="stroke: none; stroke-width: 1; stroke-dasharray: none; stroke-linecap: butt; stroke-dashoffset: 0; stroke-linejoin: miter; stroke-miterlimit: 4; fill: rgb(255,255,255); fill-rule: nonzero; opacity: 1;" vector-effect="non-scaling-stroke"  transform=" translate(-49.37, -4.52)" d="M 48.5293003 0 L 50.2066897 0 L 50.2066897 1.65203345 L 48.5293003 1.65203345 L 48.5293003 0 L 48.5293003 0 Z M 48.5545553 2.53476392 L 50.1815904 2.53476392 L 50.1815904 9.0422138 L 48.5545553 9.0422138 L 48.5545553 2.53476392 Z" stroke-linecap="round" />
</g>
		<g transform="matrix(1 0 0 1 -12.44 0.69)" id="Path"  >
<path style="stroke: none; stroke-width: 1; stroke-dasharray: none; stroke-linecap: butt; stroke-dashoffset: 0; stroke-linejoin: miter; stroke-miterlimit: 4; fill: rgb(255,255,255); fill-rule: nonzero; opacity: 1;" vector-effect="non-scaling-stroke"  transform=" translate(-54.7, -5.86)" d="M 51.8588046 6.83518334 L 51.8588046 2.53476392 L 53.473115 2.53476392 L 53.473115 6.57033112 C 53.473115 7.37743678 53.9019621 7.78100907 54.5829497 7.78100907 C 55.3900952 7.78100907 55.9198452 7.12532813 55.9198452 6.10389705 L 55.9198452 2.53476392 L 57.5466858 2.53476392 L 57.5466858 9.04223326 L 56.0205341 9.04223326 L 56.0205341 7.93245325 C 55.6800403 8.77738104 54.9612481 9.18093387 54.0279254 9.18093387 C 52.6281455 9.18093387 51.8588046 8.31073295 51.8588046 6.83522225 L 51.8588046 6.83518334 Z" stroke-linecap="round" />
</g>
		<g transform="matrix(1 0 0 1 -3.18 0.56)" id="Path"  >
<path style="stroke: none; stroke-width: 1; stroke-dasharray: none; stroke-linecap: butt; stroke-dashoffset: 0; stroke-linejoin: miter; stroke-miterlimit: 4; fill: rgb(255,255,255); fill-rule: nonzero; opacity: 1;" vector-effect="non-scaling-stroke"  transform=" translate(-63.95, -5.73)" d="M 59.3249197 2.53476392 L 60.901445 2.53476392 L 60.901445 3.49331376 C 61.2293892 2.78708658 61.8978466 2.42133643 62.6922674 2.42133643 C 63.4866881 2.42133643 64.2056748 2.78708658 64.4327356 3.61946536 C 64.8110339 2.78708658 65.5803749 2.42133643 66.5136976 2.42133643 C 67.6613369 2.42133643 68.5819349 3.14009316 68.5819349 4.52746896 L 68.5819349 9.0422138 L 66.9676245 9.0422138 L 66.9676245 4.90576812 C 66.9676245 4.19954094 66.5893262 3.85906391 65.9839476 3.85906391 C 65.30296 3.85906391 64.7732099 4.32569254 64.7732099 5.24624515 L 64.7732099 9.0422138 L 63.1463694 9.0422138 L 63.1463694 4.90576812 C 63.1463694 4.19954094 62.768071 3.85906391 62.1626925 3.85906391 C 61.4942544 3.85906391 60.9519548 4.32569254 60.9519548 5.24624515 L 60.9519548 9.0422138 L 59.3249197 9.0422138 L 59.3249197 2.53476392 L 59.3249197 2.53476392 Z" stroke-linecap="round" />
</g>
		<g transform="matrix(1 0 0 1 7.54 -0.61)" id="Path"  >
<path style="stroke: none; stroke-width: 1; stroke-dasharray: none; stroke-linecap: butt; stroke-dashoffset: 0; stroke-linejoin: miter; stroke-miterlimit: 4; fill: rgb(255,255,255); fill-rule: nonzero; opacity: 1;" vector-effect="non-scaling-stroke"  transform=" translate(-74.68, -4.56)" d="M 73.6772012 3.95994239 L 72.6933492 3.95994239 L 72.6933492 2.53476392 L 73.6772012 2.53476392 L 73.6772012 1.97996147 C 73.6772012 0.655856035 74.3076401 0.075605356 75.4427493 0.075605356 L 76.6660171 0.075605356 L 76.6660171 1.43770803 L 75.8841265 1.43770803 C 75.4427298 1.43770803 75.3040418 1.61421132 75.3040418 2.05558628 L 75.3040418 2.53476392 L 76.5147795 2.53476392 L 76.5147795 3.95994239 L 75.3040418 3.95994239 L 75.3040418 9.0422138 L 73.6772012 9.0422138 L 73.6772012 3.95994239 Z" stroke-linecap="round" />
</g>
		<g transform="matrix(1 0 0 1 13.36 -0.46)" id="Shape"  >
<path style="stroke: none; stroke-width: 1; stroke-dasharray: none; stroke-linecap: butt; stroke-dashoffset: 0; stroke-linejoin: miter; stroke-miterlimit: 4; fill: rgb(255,255,255); fill-rule: nonzero; opacity: 1;" vector-effect="non-scaling-stroke"  transform=" translate(-80.49, -4.7)" d="M 77.6498691 6.83518334 L 77.6498691 2.53476392 L 79.2641795 2.53476392 L 79.2641795 6.57033112 C 79.2641795 7.37743678 79.6928321 7.78100907 80.3740143 7.78100907 C 81.1811597 7.78100907 81.7107152 7.12532813 81.7107152 6.10389705 L 81.7107152 2.53476392 L 83.3377503 2.53476392 L 83.3377503 9.04223326 L 81.8117932 9.04223326 L 81.8117932 7.93245325 C 81.4711048 8.77738104 80.7523126 9.18093387 79.8189899 9.18093387 C 78.41921 9.18093387 77.6498691 8.31073295 77.6498691 6.83522225 L 77.6498691 6.83518334 Z M 78.5957415 0.227049538 L 79.9957159 0.227049538 L 79.9957159 1.67730657 L 78.5957415 1.67730657 L 78.5957415 0.227049538 Z M 81.0171974 0.227049538 L 82.4171718 0.227049538 L 82.4171718 1.67730657 L 81.0171974 1.67730657 L 81.0171974 0.227049538 Z" stroke-linecap="round" />
</g>
		<g transform="matrix(1 0 0 1 19.86 0.58)" id="Path"  >
<path style="stroke: none; stroke-width: 1; stroke-dasharray: none; stroke-linecap: butt; stroke-dashoffset: 0; stroke-linejoin: miter; stroke-miterlimit: 4; fill: rgb(255,255,255); fill-rule: nonzero; opacity: 1;" vector-effect="non-scaling-stroke"  transform=" translate(-87, -5.75)" d="M 85.1287673 2.53476392 L 86.6925289 2.53476392 L 86.6925289 3.69509018 C 86.9070401 2.95106032 87.4618699 2.45915856 88.2942897 2.45915856 L 88.8618443 2.45915856 L 88.8618443 4.04831077 L 88.281565 4.04831077 C 87.1717302 4.04831077 86.7430777 4.7039917 86.7430777 5.83904484 L 86.7430777 9.04223326 L 85.1287673 9.04223326 L 85.1287673 2.53478338 L 85.1287673 2.53476392 Z" stroke-linecap="round" />
</g>
		<g transform="matrix(1 0 0 1 30.8 -0.54)" id="Path"  >
<polygon style="stroke: none; stroke-width: 1; stroke-dasharray: none; stroke-linecap: butt; stroke-dashoffset: 0; stroke-linejoin: miter; stroke-miterlimit: 4; fill: rgb(255,255,255); fill-rule: nonzero; opacity: 1;" vector-effect="non-scaling-stroke"  points="-5.9,-4.41 -4.17,-4.41 -2.62,2.19 -0.96,-4.41 0.96,-4.41 2.62,2.19 4.17,-4.41 5.9,-4.41 3.66,4.41 1.74,4.41 0,-2.09 -1.74,4.41 -3.66,4.41 -5.9,-4.41 " />
</g>
		<g transform="matrix(1 0 0 1 38.65 -0.65)" id="Shape"  >
<path style="stroke: none; stroke-width: 1; stroke-dasharray: none; stroke-linecap: butt; stroke-dashoffset: 0; stroke-linejoin: miter; stroke-miterlimit: 4; fill: rgb(255,255,255); fill-rule: nonzero; opacity: 1;" vector-effect="non-scaling-stroke"  transform=" translate(-105.79, -4.52)" d="M 104.954361 0 L 106.63175 0 L 106.63175 1.65203345 L 104.954361 1.65203345 L 104.954361 0 L 104.954361 0 Z M 104.979635 2.53476392 L 106.60667 2.53476392 L 106.60667 9.0422138 L 104.979635 9.0422138 L 104.979635 2.53476392 Z" stroke-linecap="round" />
</g>
		<g transform="matrix(1 0 0 1 43.6 0.63)" id="Path"  >
<path style="stroke: none; stroke-width: 1; stroke-dasharray: none; stroke-linecap: butt; stroke-dashoffset: 0; stroke-linejoin: miter; stroke-miterlimit: 4; fill: rgb(255,255,255); fill-rule: nonzero; opacity: 1;" vector-effect="non-scaling-stroke"  transform=" translate(-110.74, -5.8)" d="M 107.918077 7.3396341 L 109.494583 7.01188119 C 109.608016 7.642289 110.137766 7.93241434 110.932362 7.93241434 C 111.61335 7.93241434 111.991648 7.71808891 111.991648 7.27673341 C 111.991648 6.79736121 111.562801 6.65866059 110.957442 6.5452331 L 110.099942 6.39380838 C 109.10354 6.21730509 108.01898 5.83900592 108.01898 4.43910058 C 108.01898 3.11499514 109.002657 2.42131697 110.629498 2.42131697 C 112.1431 2.42131697 113.177131 3.02664622 113.404172 4.25004827 L 111.852941 4.57780119 C 111.789862 3.95992294 111.323191 3.65726804 110.566594 3.65726804 C 109.898156 3.65726804 109.557662 3.90939614 109.557662 4.32567309 C 109.557662 4.80485073 109.961235 4.96882446 110.566594 5.08225195 L 111.588075 5.27149881 C 112.571752 5.44800211 113.555604 5.81375226 113.555604 7.11277912 C 113.555604 8.51248991 112.420495 9.18091441 110.894363 9.18091441 C 109.507113 9.18091441 108.208042 8.65119053 107.918077 7.3396341 L 107.918077 7.3396341 Z" stroke-linecap="round" />
</g>
		<g transform="matrix(1 0 0 1 50.12 0.63)" id="Path"  >
<path style="stroke: none; stroke-width: 1; stroke-dasharray: none; stroke-linecap: butt; stroke-dashoffset: 0; stroke-linejoin: miter; stroke-miterlimit: 4; fill: rgb(255,255,255); fill-rule: nonzero; opacity: 1;" vector-effect="non-scaling-stroke"  transform=" translate(-117.26, -5.8)" d="M 114.438398 7.3396341 L 116.014904 7.01188119 C 116.128337 7.642289 116.658087 7.93241434 117.452682 7.93241434 C 118.13367 7.93241434 118.511968 7.71808891 118.511968 7.27673341 C 118.511968 6.79736121 118.083121 6.65866059 117.477762 6.5452331 L 116.620263 6.39380838 C 115.623861 6.21730509 114.539301 5.83900592 114.539301 4.43910058 C 114.539301 3.11499514 115.522978 2.42131697 117.149818 2.42131697 C 118.66342 2.42131697 119.697451 3.02664622 119.924493 4.25004827 L 118.373261 4.57780119 C 118.310182 3.95992294 117.843511 3.65726804 117.086914 3.65726804 C 116.418476 3.65726804 116.077982 3.90939614 116.077982 4.32567309 C 116.077982 4.80485073 116.481555 4.96882446 117.086914 5.08225195 L 118.108396 5.27149881 C 119.092073 5.44800211 120.075925 5.81375226 120.075925 7.11277912 C 120.075925 8.51248991 118.940816 9.18091441 117.414683 9.18091441 C 116.027434 9.18091441 114.728362 8.65119053 114.438398 7.3396341 L 114.438398 7.3396341 Z" stroke-linecap="round" />
</g>
		<g transform="matrix(1 0 0 1 56.88 0.63)" id="Shape"  >
<path style="stroke: none; stroke-width: 1; stroke-dasharray: none; stroke-linecap: butt; stroke-dashoffset: 0; stroke-linejoin: miter; stroke-miterlimit: 4; fill: rgb(255,255,255); fill-rule: nonzero; opacity: 1;" vector-effect="non-scaling-stroke"  transform=" translate(-124.02, -5.8)" d="M 120.958718 5.87682806 C 120.958718 3.90939614 122.030748 2.42133643 124.098966 2.42133643 C 126.217733 2.42133643 127.075446 3.94721828 127.075446 5.82630127 L 127.075446 6.24257821 L 122.547754 6.24257821 C 122.648657 7.32708509 123.178388 7.86933854 124.162065 7.86933854 C 124.893601 7.86933854 125.334978 7.59193731 125.536765 7.03695975 L 127.062722 7.36488777 C 126.659149 8.55029259 125.625118 9.18089496 124.13679 9.18089496 C 122.232535 9.18089496 120.958718 7.99549014 120.958718 5.87682806 L 120.958718 5.87682806 Z M 125.486216 5.14534721 C 125.435862 4.22481406 124.994484 3.73289285 124.098966 3.73289285 C 123.203448 3.73289285 122.736991 4.22479461 122.585559 5.14534721 L 125.486216 5.14534721 Z" stroke-linecap="round" />
</g>
		<g transform="matrix(1 0 0 1 64.21 0.56)" id="Path"  >
<path style="stroke: none; stroke-width: 1; stroke-dasharray: none; stroke-linecap: butt; stroke-dashoffset: 0; stroke-linejoin: miter; stroke-miterlimit: 4; fill: rgb(255,255,255); fill-rule: nonzero; opacity: 1;" vector-effect="non-scaling-stroke"  transform=" translate(-131.34, -5.73)" d="M 128.437402 2.53476392 L 130.001183 2.53476392 L 130.001183 3.55638956 C 130.366952 2.81235971 131.098469 2.42133643 132.082145 2.42133643 C 133.532474 2.42133643 134.251266 3.29153735 134.251266 4.76704805 L 134.251266 9.04219435 L 132.624426 9.04219435 L 132.624426 5.05717339 C 132.624426 4.26259729 132.170499 3.85904446 131.489317 3.85904446 C 130.644347 3.85904446 130.051713 4.43910058 130.051713 5.51107791 L 130.051713 9.04219435 L 128.437402 9.04219435 L 128.437402 2.53474446 L 128.437402 2.53476392 Z" stroke-linecap="round" />
</g>
		<g transform="matrix(1 0 0 1 71.23 0.63)" id="Path"  >
<path style="stroke: none; stroke-width: 1; stroke-dasharray: none; stroke-linecap: butt; stroke-dashoffset: 0; stroke-linejoin: miter; stroke-miterlimit: 4; fill: rgb(255,255,255); fill-rule: nonzero; opacity: 1;" vector-effect="non-scaling-stroke"  transform=" translate(-138.37, -5.8)" d="M 135.550532 7.3396341 L 137.127038 7.01188119 C 137.240471 7.642289 137.770221 7.93241434 138.564817 7.93241434 C 139.245805 7.93241434 139.624103 7.71808891 139.624103 7.27673341 C 139.624103 6.79736121 139.195256 6.65866059 138.589897 6.5452331 L 137.732397 6.39380838 C 136.735996 6.21730509 135.651435 5.83900592 135.651435 4.43910058 C 135.651435 3.11499514 136.635112 2.42131697 138.261953 2.42131697 C 139.775555 2.42131697 140.809586 3.02664622 141.036627 4.25004827 L 139.485396 4.57780119 C 139.422317 3.95992294 138.955646 3.65726804 138.199049 3.65726804 C 137.530611 3.65726804 137.190117 3.90939614 137.190117 4.32567309 C 137.190117 4.80485073 137.59369 4.96882446 138.199049 5.08225195 L 139.22053 5.27149881 C 140.204207 5.44800211 141.188059 5.81375226 141.188059 7.11277912 C 141.188059 8.51248991 140.05295 9.18091441 138.526818 9.18091441 C 137.139568 9.18091441 135.840497 8.65119053 135.550532 7.3396341 L 135.550532 7.3396341 Z" stroke-linecap="round" />
</g>
		<g transform="matrix(1 0 0 1 77.93 0.63)" id="Path"  >
<path style="stroke: none; stroke-width: 1; stroke-dasharray: none; stroke-linecap: butt; stroke-dashoffset: 0; stroke-linejoin: miter; stroke-miterlimit: 4; fill: rgb(255,255,255); fill-rule: nonzero; opacity: 1;" vector-effect="non-scaling-stroke"  transform=" translate(-145.07, -5.8)" d="M 142.070833 5.8642985 C 142.070833 3.93466927 143.092334 2.42133643 145.26165 2.42133643 C 146.850686 2.42133643 147.859617 3.22844209 148.073953 4.57782065 L 146.459643 4.90574866 C 146.409289 4.19952148 145.967912 3.82124178 145.248905 3.82124178 C 144.113991 3.82124178 143.722948 4.66616957 143.722948 5.81375226 C 143.722948 6.99915708 144.139071 7.76846006 145.223826 7.76846006 C 145.967892 7.76846006 146.396545 7.41543402 146.459643 6.67140416 L 148.073953 7.01188119 C 147.847087 8.36124029 146.762332 9.18089496 145.160747 9.18089496 C 143.004156 9.18089496 142.070833 7.69283524 142.070833 5.86427905 L 142.070833 5.8642985 Z" stroke-linecap="round" />
</g>
		<g transform="matrix(1 0 0 1 85.23 -0.61)" id="Path"  >
<path style="stroke: none; stroke-width: 1; stroke-dasharray: none; stroke-linecap: butt; stroke-dashoffset: 0; stroke-linejoin: miter; stroke-miterlimit: 4; fill: rgb(255,255,255); fill-rule: nonzero; opacity: 1;" vector-effect="non-scaling-stroke"  transform=" translate(-152.37, -4.56)" d="M 149.461184 0.0755859002 L 151.075514 0.0755859002 L 151.075514 3.46802118 C 151.453812 2.78706713 152.160074 2.42131697 153.105927 2.42131697 C 154.556255 2.42131697 155.275242 3.29151789 155.275242 4.76702859 L 155.275242 9.04217489 L 153.648207 9.04217489 L 153.648207 5.05715393 C 153.648207 4.26257783 153.19428 3.859025 152.513098 3.859025 C 151.668128 3.859025 151.075494 4.43908112 151.075494 5.51105845 L 151.075494 9.04217489 L 149.461184 9.04217489 L 149.461184 0.0755859002 L 149.461184 0.0755859002 Z" stroke-linecap="round" />
</g>
		<g transform="matrix(1 0 0 1 92.37 0.63)" id="Shape"  >
<path style="stroke: none; stroke-width: 1; stroke-dasharray: none; stroke-linecap: butt; stroke-dashoffset: 0; stroke-linejoin: miter; stroke-miterlimit: 4; fill: rgb(255,255,255); fill-rule: nonzero; opacity: 1;" vector-effect="non-scaling-stroke"  transform=" translate(-159.51, -5.8)" d="M 156.599413 7.25147974 C 156.599413 5.82630127 157.721797 5.46074567 158.66765 5.3218505 L 159.979271 5.14534721 C 160.471197 5.0697224 160.799161 4.95610035 160.799161 4.45184415 C 160.799161 3.92212026 160.433393 3.66981705 159.714406 3.66981705 C 158.819082 3.66981705 158.428059 4.02301819 158.314626 4.61562332 L 156.788475 4.28787041 C 157.103889 3.00139255 158.200999 2.42131697 159.802759 2.42131697 C 161.568307 2.42131697 162.426002 3.12754415 162.426002 4.5905253 L 162.426002 9.04219435 L 160.912594 9.04219435 L 160.912594 7.93241434 C 160.521552 8.70171732 159.777485 9.18089496 158.718199 9.18089496 C 157.482206 9.18089496 156.599413 8.4999409 156.599413 7.25146028 L 156.599413 7.25147974 Z M 159.184851 7.84408487 C 160.143253 7.84408487 160.799161 7.25147974 160.799161 6.33075203 L 160.799161 5.97772599 C 160.559376 6.06607492 160.307235 6.12895616 159.941467 6.17950241 L 159.20993 6.2929299 C 158.743279 6.3560057 158.226253 6.50743042 158.226253 7.087506 C 158.226253 7.59195677 158.579472 7.84408487 159.184851 7.84408487 Z" stroke-linecap="round" />
</g>
		<g transform="matrix(1 0 0 1 98.38 -0.61)" id="Path"  >
<path style="stroke: none; stroke-width: 1; stroke-dasharray: none; stroke-linecap: butt; stroke-dashoffset: 0; stroke-linejoin: miter; stroke-miterlimit: 4; fill: rgb(255,255,255); fill-rule: nonzero; opacity: 1;" vector-effect="non-scaling-stroke"  transform=" translate(-165.52, -4.56)" d="M 164.519494 3.95994239 L 163.535642 3.95994239 L 163.535642 2.53476392 L 164.519494 2.53476392 L 164.519494 1.97996147 C 164.519494 0.655856035 165.149933 0.075605356 166.285042 0.075605356 L 167.50831 0.075605356 L 167.50831 1.43770803 L 166.726419 1.43770803 C 166.285022 1.43770803 166.146334 1.61421132 166.146334 2.05558628 L 166.146334 2.53476392 L 167.357072 2.53476392 L 167.357072 3.95994239 L 166.146334 3.95994239 L 166.146334 9.0422138 L 164.519494 9.0422138 L 164.519494 3.95994239 Z" stroke-linecap="round" />
</g>
		<g transform="matrix(1 0 0 1 102.91 -0.35)" id="Path"  >
<path style="stroke: none; stroke-width: 1; stroke-dasharray: none; stroke-linecap: butt; stroke-dashoffset: 0; stroke-linejoin: miter; stroke-miterlimit: 4; fill: rgb(255,255,255); fill-rule: nonzero; opacity: 1;" vector-effect="non-scaling-stroke"  transform=" translate(-170.05, -4.82)" d="M 169.072091 7.18838448 L 169.072091 3.95992294 L 167.949706 3.95992294 L 167.949706 2.53474446 L 169.072091 2.53474446 L 169.072091 1.04668475 L 170.699126 0.592780233 L 170.699126 2.53474446 L 172.010747 2.53474446 L 172.010747 3.95992294 L 170.699126 3.95992294 L 170.699126 6.92351281 C 170.699126 7.41541456 170.863108 7.61719098 171.367564 7.61719098 L 172.149454 7.61719098 L 172.149454 9.04217489 L 170.926187 9.04217489 C 169.690194 9.04217489 169.072091 8.43684565 169.072091 7.18836502 L 169.072091 7.18838448 Z" stroke-linecap="round" />
</g>
		<g transform="matrix(1 0 0 1 106.86 4.08)" id="Path"  >
<path style="stroke: none; stroke-width: 1; stroke-dasharray: none; stroke-linecap: butt; stroke-dashoffset: 0; stroke-linejoin: miter; stroke-miterlimit: 4; fill: rgb(255,255,255); fill-rule: nonzero; opacity: 1;" vector-effect="non-scaling-stroke"  transform=" translate(-174, -9.25)" d="M 174.154788 8.92878631 L 173.309624 8.92878631 L 173.309624 7.25147974 L 175.138445 7.25147974 L 175.138445 8.80263471 C 175.138445 10.4799413 174.104239 11.0978195 173.070014 11.2492443 L 172.868227 10.3790433 C 173.839354 10.1897965 174.129494 9.72316786 174.154768 8.92878631 L 174.154788 8.92878631 Z" stroke-linecap="round" />
</g>
		<g transform="matrix(1 0 0 1 -64.07 13.03)" id="Path"  >
<polygon style="stroke: none; stroke-width: 1; stroke-dasharray: none; stroke-linecap: butt; stroke-dashoffset: 0; stroke-linejoin: miter; stroke-miterlimit: 4; fill: rgb(255,255,255); fill-rule: nonzero; opacity: 1;" vector-effect="non-scaling-stroke"  points="-2.86,-4.41 2.86,-4.41 2.86,-2.85 -1.2,-2.85 -1.2,-0.76 2.45,-0.76 2.45,0.81 -1.2,0.81 -1.2,4.41 -2.86,4.41 -2.86,-4.41 " />
</g>
		<g transform="matrix(1 0 0 1 -57.45 14.2)" id="Shape"  >
<path style="stroke: none; stroke-width: 1; stroke-dasharray: none; stroke-linecap: butt; stroke-dashoffset: 0; stroke-linejoin: miter; stroke-miterlimit: 4; fill: rgb(255,255,255); fill-rule: nonzero; opacity: 1;" vector-effect="non-scaling-stroke"  transform=" translate(-9.68, -19.37)" d="M 6.50662292 19.3663333 C 6.50662292 17.2727498 7.75516512 15.9864471 9.68469497 15.9864471 C 11.6269496 15.9864471 12.8629616 17.2727304 12.8629616 19.3663333 C 12.8629616 21.4599363 11.626969 22.7460251 9.68469497 22.7460251 C 7.75516512 22.7460251 6.50662292 21.4597418 6.50662292 19.3663333 Z M 9.68467552 21.2201432 C 10.6054486 21.2201432 11.2233574 20.6400871 11.2233574 19.3663333 C 11.2233574 18.0925796 10.6054486 17.5123289 9.68467552 17.5123289 C 8.76390239 17.5123289 8.1587184 18.0925796 8.1587184 19.3663333 C 8.1587184 20.6400871 8.77662713 21.2201432 9.68467552 21.2201432 Z" stroke-linecap="round" />
</g>
		<g transform="matrix(1 0 0 1 -51.03 14.15)" id="Path"  >
<path style="stroke: none; stroke-width: 1; stroke-dasharray: none; stroke-linecap: butt; stroke-dashoffset: 0; stroke-linejoin: miter; stroke-miterlimit: 4; fill: rgb(255,255,255); fill-rule: nonzero; opacity: 1;" vector-effect="non-scaling-stroke"  transform=" translate(-16.1, -19.32)" d="M 14.2376422 16.0998746 L 15.8014038 16.0998746 L 15.8014038 17.2602008 C 16.0157398 16.516171 16.5707448 16.0242692 17.4031646 16.0242692 L 17.9707192 16.0242692 L 17.9707192 17.6134214 L 17.3904399 17.6134214 C 16.2806051 17.6134214 15.8519526 18.2691023 15.8519526 19.4041555 L 15.8519526 22.6073439 L 14.2376422 22.6073439 L 14.2376422 16.099894 L 14.2376422 16.0998746 Z" stroke-linecap="round" />
</g>
		<g transform="matrix(1 0 0 1 -45.62 14.2)" id="Path"  >
<path style="stroke: none; stroke-width: 1; stroke-dasharray: none; stroke-linecap: butt; stroke-dashoffset: 0; stroke-linejoin: miter; stroke-miterlimit: 4; fill: rgb(255,255,255); fill-rule: nonzero; opacity: 1;" vector-effect="non-scaling-stroke"  transform=" translate(-21.52, -19.37)" d="M 18.702061 20.9047447 L 20.2785668 20.5769918 C 20.3919999 21.2073996 20.9217499 21.497525 21.7163458 21.497525 C 22.3973334 21.497525 22.7756318 21.2831996 22.7756318 20.841844 C 22.7756318 20.3624718 22.3467847 20.2237712 21.7414256 20.1103437 L 20.8839259 19.958919 C 19.8875243 19.7824157 18.8029639 19.4041166 18.8029639 18.0042112 C 18.8029639 16.6801058 19.7866408 15.9864276 21.4134814 15.9864276 C 22.9270834 15.9864276 23.9611145 16.5917569 24.1881558 17.8151589 L 22.6369243 18.1429118 C 22.5738454 17.5250336 22.1071743 17.2223787 21.3505776 17.2223787 C 20.6821396 17.2223787 20.3416457 17.4745068 20.3416457 17.8907837 C 20.3416457 18.3699614 20.7452185 18.5339351 21.3505776 18.6473626 L 22.372059 18.8366095 C 23.355736 19.0131127 24.339588 19.3788629 24.339588 20.6778898 C 24.339588 22.0776006 23.2044789 22.7460251 21.6783467 22.7460251 C 20.291097 22.7460251 18.9920255 22.2163012 18.702061 20.9047447 L 18.702061 20.9047447 Z" stroke-linecap="round" />
</g>
		<g transform="matrix(1 0 0 1 -38.91 14.2)" id="Path"  >
<path style="stroke: none; stroke-width: 1; stroke-dasharray: none; stroke-linecap: butt; stroke-dashoffset: 0; stroke-linejoin: miter; stroke-miterlimit: 4; fill: rgb(255,255,255); fill-rule: nonzero; opacity: 1;" vector-effect="non-scaling-stroke"  transform=" translate(-28.22, -19.37)" d="M 25.222362 19.4294091 C 25.222362 17.4997799 26.2438629 15.9864471 28.4131783 15.9864471 C 30.0022143 15.9864471 31.0111461 16.7935527 31.2254821 18.1429313 L 29.6111717 18.4708593 C 29.5608176 17.7646321 29.1194403 17.3863524 28.4004341 17.3863524 C 27.2655195 17.3863524 26.874477 18.2312802 26.874477 19.3788629 C 26.874477 20.5642677 27.2905993 21.3335707 28.3753543 21.3335707 C 29.1194208 21.3335707 29.5480734 20.9805447 29.6111717 20.2365148 L 31.2254821 20.5769918 C 30.998616 21.9263509 29.913861 22.7460056 28.3122754 22.7460056 C 26.1556848 22.7460056 25.222362 21.2579459 25.222362 19.4293897 L 25.222362 19.4294091 Z" stroke-linecap="round" />
</g>
		<g transform="matrix(1 0 0 1 -31.62 12.96)" id="Path"  >
<path style="stroke: none; stroke-width: 1; stroke-dasharray: none; stroke-linecap: butt; stroke-dashoffset: 0; stroke-linejoin: miter; stroke-miterlimit: 4; fill: rgb(255,255,255); fill-rule: nonzero; opacity: 1;" vector-effect="non-scaling-stroke"  transform=" translate(-35.52, -18.12)" d="M 32.6127123 13.640716 L 34.2270422 13.640716 L 34.2270422 17.0331513 C 34.6053405 16.3521972 35.3116026 15.9864471 36.2574555 15.9864471 C 37.7077841 15.9864471 38.4267708 16.856648 38.4267708 18.3321587 L 38.4267708 22.607305 L 36.7997357 22.607305 L 36.7997357 18.622284 C 36.7997357 17.8277079 36.3458088 17.4241551 35.6646266 17.4241551 C 34.8196571 17.4241551 34.2270227 18.0042112 34.2270227 19.0761885 L 34.2270227 22.607305 L 32.6127123 22.607305 L 32.6127123 13.640716 L 32.6127123 13.640716 Z" stroke-linecap="round" />
</g>
		<g transform="matrix(1 0 0 1 -24.2 14.26)" id="Path"  >
<path style="stroke: none; stroke-width: 1; stroke-dasharray: none; stroke-linecap: butt; stroke-dashoffset: 0; stroke-linejoin: miter; stroke-miterlimit: 4; fill: rgb(255,255,255); fill-rule: nonzero; opacity: 1;" vector-effect="non-scaling-stroke"  transform=" translate(-42.94, -19.42)" d="M 40.0914354 20.4003134 L 40.0914354 16.099894 L 41.7057458 16.099894 L 41.7057458 20.1354612 C 41.7057458 20.9425669 42.1345929 21.3461392 42.8155805 21.3461392 C 43.622726 21.3461392 44.152476 20.6904582 44.152476 19.6690271 L 44.152476 16.099894 L 45.7793166 16.099894 L 45.7793166 22.6073634 L 44.2531649 22.6073634 L 44.2531649 21.4975833 C 43.9126711 22.3425111 43.1938789 22.746064 42.2605561 22.746064 C 40.8607763 22.746064 40.0914354 21.875863 40.0914354 20.4003523 L 40.0914354 20.4003134 Z" stroke-linecap="round" />
</g>
		<g transform="matrix(1 0 0 1 -16.66 14.13)" id="Path"  >
<path style="stroke: none; stroke-width: 1; stroke-dasharray: none; stroke-linecap: butt; stroke-dashoffset: 0; stroke-linejoin: miter; stroke-miterlimit: 4; fill: rgb(255,255,255); fill-rule: nonzero; opacity: 1;" vector-effect="non-scaling-stroke"  transform=" translate(-50.48, -19.3)" d="M 47.5702946 16.0998746 L 49.1340757 16.0998746 L 49.1340757 17.1215002 C 49.4998439 16.3774703 50.2313609 15.9864471 51.2150378 15.9864471 C 52.6653664 15.9864471 53.3841586 16.856648 53.3841586 18.3321587 L 53.3841586 22.607305 L 51.757318 22.607305 L 51.757318 18.622284 C 51.757318 17.8277079 51.3033911 17.4241551 50.6222089 17.4241551 C 49.7772394 17.4241551 49.184605 18.0042112 49.184605 19.0761885 L 49.184605 22.607305 L 47.5702946 22.607305 L 47.5702946 16.0998551 L 47.5702946 16.0998746 Z" stroke-linecap="round" />
</g>
		<g transform="matrix(1 0 0 1 -9.23 15.41)" id="Shape"  >
<path style="stroke: none; stroke-width: 1; stroke-dasharray: none; stroke-linecap: butt; stroke-dashoffset: 0; stroke-linejoin: miter; stroke-miterlimit: 4; fill: rgb(255,255,255); fill-rule: nonzero; opacity: 1;" vector-effect="non-scaling-stroke"  transform=" translate(-57.91, -20.58)" d="M 54.7841524 23.1621269 L 56.3606388 22.8216499 C 56.4487975 23.4397227 56.9154686 23.8936272 57.9118703 23.8936272 C 58.9333518 23.8936272 59.5387109 23.3766469 59.5387109 22.3930185 L 59.5387109 21.2957875 C 59.1856674 21.9894656 58.4416009 22.3930185 57.5082976 22.3930185 C 55.9823404 22.3930185 54.7085433 21.3588633 54.7085433 19.2401817 C 54.7085433 17.0836975 56.0201644 15.9864665 57.5839261 15.9864665 C 58.5550534 15.9864665 59.2109612 16.4152925 59.5134559 17.0080922 L 59.5134559 16.099894 L 61.1152167 16.099894 L 61.1152167 22.1912421 C 61.1152167 24.2468283 59.6648881 25.1673809 57.8991455 25.1673809 C 56.3101095 25.1673809 55.1121161 24.4611538 54.7841524 23.1621463 L 54.7841524 23.1621269 Z M 57.9118703 21.0309353 C 58.7568398 21.0309353 59.4883567 20.5011919 59.4883567 19.2527307 C 59.4883567 18.0547964 58.8199187 17.4745457 57.9371252 17.4745457 C 57.0543317 17.4745457 56.3606388 18.0295232 56.3606388 19.2654743 C 56.3606388 20.4634087 57.0416265 21.0309353 57.9118703 21.0309353 L 57.9118703 21.0309353 Z" stroke-linecap="round" />
</g>
		<g transform="matrix(1 0 0 1 1.63 14.26)" id="Path"  >
<path style="stroke: none; stroke-width: 1; stroke-dasharray: none; stroke-linecap: butt; stroke-dashoffset: 0; stroke-linejoin: miter; stroke-miterlimit: 4; fill: rgb(255,255,255); fill-rule: nonzero; opacity: 1;" vector-effect="non-scaling-stroke"  transform=" translate(-68.76, -19.42)" d="M 65.9203239 20.4003134 L 65.9203239 16.099894 L 67.5346343 16.099894 L 67.5346343 20.1354612 C 67.5346343 20.9425669 67.9634814 21.3461392 68.6444691 21.3461392 C 69.4516145 21.3461392 69.9813645 20.6904582 69.9813645 19.6690271 L 69.9813645 16.099894 L 71.6082051 16.099894 L 71.6082051 22.6073634 L 70.0820534 22.6073634 L 70.0820534 21.4975833 C 69.7415596 22.3425111 69.0227674 22.746064 68.0894447 22.746064 C 66.6896648 22.746064 65.9203239 21.875863 65.9203239 20.4003523 L 65.9203239 20.4003134 Z" stroke-linecap="round" />
</g>
		<g transform="matrix(1 0 0 1 9.17 14.13)" id="Path"  >
<path style="stroke: none; stroke-width: 1; stroke-dasharray: none; stroke-linecap: butt; stroke-dashoffset: 0; stroke-linejoin: miter; stroke-miterlimit: 4; fill: rgb(255,255,255); fill-rule: nonzero; opacity: 1;" vector-effect="non-scaling-stroke"  transform=" translate(-76.31, -19.3)" d="M 73.3991832 16.0998746 L 74.9629643 16.0998746 L 74.9629643 17.1215002 C 75.3287325 16.3774703 76.0602494 15.9864471 77.0439263 15.9864471 C 78.4942549 15.9864471 79.2130471 16.856648 79.2130471 18.3321587 L 79.2130471 22.607305 L 77.5862065 22.607305 L 77.5862065 18.622284 C 77.5862065 17.8277079 77.1322796 17.4241551 76.4510974 17.4241551 C 75.6061279 17.4241551 75.0134936 18.0042112 75.0134936 19.0761885 L 75.0134936 22.607305 L 73.3991832 22.607305 L 73.3991832 16.0998551 L 73.3991832 16.0998746 Z" stroke-linecap="round" />
</g>
		<g transform="matrix(1 0 0 1 16.58 13.03)" id="Shape"  >
<path style="stroke: none; stroke-width: 1; stroke-dasharray: none; stroke-linecap: butt; stroke-dashoffset: 0; stroke-linejoin: miter; stroke-miterlimit: 4; fill: rgb(255,255,255); fill-rule: nonzero; opacity: 1;" vector-effect="non-scaling-stroke"  transform=" translate(-83.72, -18.19)" d="M 80.5121575 19.3788824 C 80.5121575 17.3610987 81.5714435 15.9864665 83.3624604 15.9864665 C 84.2705088 15.9864665 84.9640266 16.3522167 85.3172647 16.982819 L 85.3172647 13.6407549 L 86.9315751 13.6407549 L 86.9315751 22.6073439 L 85.4181676 22.6073439 L 85.4181676 21.5353666 C 85.1533023 22.2037716 84.4723147 22.7460445 83.3624799 22.7460445 C 81.5842071 22.7460445 80.5121575 21.3966854 80.5121575 19.3789018 L 80.5121575 19.3788824 Z M 83.7280341 21.2704949 C 84.7497101 21.2704949 85.3172647 20.5011919 85.3172647 19.3157871 C 85.3172647 18.1934581 84.7622597 17.4619772 83.7280341 17.4619772 C 82.7065526 17.4619772 82.1642724 18.1934775 82.1642724 19.3536092 C 82.1642724 20.5011919 82.7065526 21.2704949 83.7280341 21.2704949 Z" stroke-linecap="round" />
</g>
		<g transform="matrix(1 0 0 1 28.55 13.03)" id="Path"  >
<polygon style="stroke: none; stroke-width: 1; stroke-dasharray: none; stroke-linecap: butt; stroke-dashoffset: 0; stroke-linejoin: miter; stroke-miterlimit: 4; fill: rgb(255,255,255); fill-rule: nonzero; opacity: 1;" vector-effect="non-scaling-stroke"  points="-3.7,-4.41 -2.03,-4.41 -2.03,-0.48 1.5,-4.41 3.68,-4.41 0.33,-0.86 3.7,4.41 1.69,4.41 -0.83,0.37 -2.03,1.65 -2.03,4.41 -3.7,4.41 -3.7,-4.41 " />
</g>
		<g transform="matrix(1 0 0 1 35.79 14.26)" id="Path"  >
<path style="stroke: none; stroke-width: 1; stroke-dasharray: none; stroke-linecap: butt; stroke-dashoffset: 0; stroke-linejoin: miter; stroke-miterlimit: 4; fill: rgb(255,255,255); fill-rule: nonzero; opacity: 1;" vector-effect="non-scaling-stroke"  transform=" translate(-102.93, -19.42)" d="M 100.085416 20.4003134 L 100.085416 16.099894 L 101.699726 16.099894 L 101.699726 20.1354612 C 101.699726 20.9425669 102.128379 21.3461392 102.809561 21.3461392 C 103.616706 21.3461392 104.146262 20.6904582 104.146262 19.6690271 L 104.146262 16.099894 L 105.773297 16.099894 L 105.773297 22.6073634 L 104.24734 22.6073634 L 104.24734 21.4975833 C 103.906651 22.3425111 103.187859 22.746064 102.254536 22.746064 C 100.854757 22.746064 100.085416 21.875863 100.085416 20.4003523 L 100.085416 20.4003134 Z" stroke-linecap="round" />
</g>
		<g transform="matrix(1 0 0 1 43.33 14.13)" id="Path"  >
<path style="stroke: none; stroke-width: 1; stroke-dasharray: none; stroke-linecap: butt; stroke-dashoffset: 0; stroke-linejoin: miter; stroke-miterlimit: 4; fill: rgb(255,255,255); fill-rule: nonzero; opacity: 1;" vector-effect="non-scaling-stroke"  transform=" translate(-110.47, -19.3)" d="M 107.5641 16.0998746 L 109.127881 16.0998746 L 109.127881 17.1215002 C 109.493649 16.3774703 110.225166 15.9864471 111.208843 15.9864471 C 112.659172 15.9864471 113.377964 16.856648 113.377964 18.3321587 L 113.377964 22.607305 L 111.751123 22.607305 L 111.751123 18.622284 C 111.751123 17.8277079 111.297196 17.4241551 110.616014 17.4241551 C 109.771045 17.4241551 109.17841 18.0042112 109.17841 19.0761885 L 109.17841 22.607305 L 107.5641 22.607305 L 107.5641 16.0998551 L 107.5641 16.0998746 Z" stroke-linecap="round" />
</g>
		<g transform="matrix(1 0 0 1 50.36 14.2)" id="Path"  >
<path style="stroke: none; stroke-width: 1; stroke-dasharray: none; stroke-linecap: butt; stroke-dashoffset: 0; stroke-linejoin: miter; stroke-miterlimit: 4; fill: rgb(255,255,255); fill-rule: nonzero; opacity: 1;" vector-effect="non-scaling-stroke"  transform=" translate(-117.5, -19.37)" d="M 114.67723 20.9047447 L 116.253736 20.5769918 C 116.367169 21.2073996 116.896919 21.497525 117.691515 21.497525 C 118.372502 21.497525 118.750801 21.2831996 118.750801 20.841844 C 118.750801 20.3624718 118.321953 20.2237712 117.716594 20.1103437 L 116.859095 19.958919 C 115.862693 19.7824157 114.778133 19.4041166 114.778133 18.0042112 C 114.778133 16.6801058 115.76181 15.9864276 117.38865 15.9864276 C 118.902252 15.9864276 119.936283 16.5917569 120.163325 17.8151589 L 118.612093 18.1429118 C 118.549014 17.5250336 118.082343 17.2223787 117.325746 17.2223787 C 116.657308 17.2223787 116.316815 17.4745068 116.316815 17.8907837 C 116.316815 18.3699614 116.720387 18.5339351 117.325746 18.6473626 L 118.347228 18.8366095 C 119.330905 19.0131127 120.314757 19.3788629 120.314757 20.6778898 C 120.314757 22.0776006 119.179648 22.7460251 117.653515 22.7460251 C 116.266266 22.7460251 114.967194 22.2163012 114.67723 20.9047447 L 114.67723 20.9047447 Z" stroke-linecap="round" />
</g>
		<g transform="matrix(1 0 0 1 55.83 13.22)" id="Path"  >
<path style="stroke: none; stroke-width: 1; stroke-dasharray: none; stroke-linecap: butt; stroke-dashoffset: 0; stroke-linejoin: miter; stroke-miterlimit: 4; fill: rgb(255,255,255); fill-rule: nonzero; opacity: 1;" vector-effect="non-scaling-stroke"  transform=" translate(-122.97, -18.38)" d="M 121.992166 20.7535146 L 121.992166 17.525053 L 120.869606 17.525053 L 120.869606 16.0998746 L 121.992166 16.0998746 L 121.992166 14.6118148 L 123.619006 14.1579103 L 123.619006 16.0998746 L 124.930627 16.0998746 L 124.930627 17.525053 L 123.619006 17.525053 L 123.619006 20.4886429 C 123.619006 20.9805447 123.782988 21.1823211 124.287444 21.1823211 L 125.069335 21.1823211 L 125.069335 22.607305 L 123.846067 22.607305 C 122.610074 22.607305 121.992166 22.0019757 121.992166 20.7534951 L 121.992166 20.7535146 Z" stroke-linecap="round" />
</g>
		<g transform="matrix(1 0 0 1 -63.79 -14.11)" id="Shape"  >
<path style="stroke: none; stroke-width: 1; stroke-dasharray: none; stroke-linecap: butt; stroke-dashoffset: 0; stroke-linejoin: miter; stroke-miterlimit: 4; fill: rgb(255,255,255); fill-rule: nonzero; opacity: 1;" vector-effect="non-scaling-stroke"  transform=" translate(-3.35, -4.55)" d="M 0 0.138700613 L 4.06084607 0.138700613 C 5.66260683 0.138700613 6.41941759 1.21067794 6.41941759 2.30790894 C 6.41941759 3.16536629 5.97802085 4.02301819 5.0825221 4.31314353 C 6.15455231 4.61581788 6.6968325 5.49854835 6.6968325 6.44435462 C 6.6968325 7.75591105 5.70043083 8.96658899 3.8339799 8.96658899 L 0 8.96658899 L 0 0.138700613 Z M 3.55656499 3.70781429 C 4.32571135 3.70781429 4.71675391 3.22844209 4.71675391 2.64838597 C 4.71675391 2.10613253 4.36371046 1.69003069 3.63219353 1.69003069 L 1.66466457 1.69003069 L 1.66466457 3.70781429 L 3.55656499 3.70781429 Z M 3.65727333 7.40270991 C 4.59059608 7.40270991 5.00689356 6.82265378 5.00689356 6.17950241 C 5.00689356 5.56162415 4.57804645 5.03191972 3.73307698 5.03191972 L 1.66464511 5.03191972 L 1.66464511 7.40270991 L 3.65725387 7.40270991 L 3.65727333 7.40270991 Z" stroke-linecap="round" />
</g>
		<g transform="matrix(1 0 0 1 -56.48 -12.94)" id="Shape"  >
<path style="stroke: none; stroke-width: 1; stroke-dasharray: none; stroke-linecap: butt; stroke-dashoffset: 0; stroke-linejoin: miter; stroke-miterlimit: 4; fill: rgb(255,255,255); fill-rule: nonzero; opacity: 1;" vector-effect="non-scaling-stroke"  transform=" translate(-10.66, -5.73)" d="M 7.74376345 7.17585493 C 7.74376345 5.75067645 8.86614782 5.3849263 9.81200075 5.24622569 L 11.1236219 5.0697224 C 11.6155479 4.99409759 11.9435115 4.8806701 11.9435115 4.37604423 C 11.9435115 3.8465149 11.5777433 3.59419224 10.8587566 3.59419224 C 9.96343295 3.59419224 9.57240984 3.94739338 9.45897675 4.53999851 L 7.93282507 4.2122456 C 8.24823909 2.92576774 9.3453491 2.34569216 10.9471099 2.34569216 C 12.7126579 2.34569216 13.5703521 3.05191934 13.5703521 4.51490049 L 13.5703521 8.96656953 L 12.0569446 8.96656953 L 12.0569446 7.85678953 C 11.6659021 8.62609251 10.9218355 9.10527015 9.86254949 9.10527015 C 8.62655691 9.10527015 7.74376345 8.42431609 7.74376345 7.17583547 L 7.74376345 7.17585493 Z M 10.3292011 7.76846006 C 11.2876037 7.76846006 11.9435115 7.17585493 11.9435115 6.25512722 L 11.9435115 5.90210118 C 11.7037261 5.99025555 11.4515855 6.05333135 11.0858173 6.1038776 L 10.3542809 6.21730509 C 9.88762929 6.28038089 9.37060402 6.43180561 9.37060402 7.01188119 C 9.37060402 7.51633195 9.72382258 7.76846006 10.3292011 7.76846006 Z" stroke-linecap="round" />
</g>
		<g transform="matrix(1 0 0 1 -49.02 -14.11)" id="Shape"  >
<path style="stroke: none; stroke-width: 1; stroke-dasharray: none; stroke-linecap: butt; stroke-dashoffset: 0; stroke-linejoin: miter; stroke-miterlimit: 4; fill: rgb(255,255,255); fill-rule: nonzero; opacity: 1;" vector-effect="non-scaling-stroke"  transform=" translate(-18.12, -4.55)" d="M 14.907053 5.73812744 C 14.907053 3.72034384 15.966339 2.34571162 17.757356 2.34571162 C 18.6654044 2.34571162 19.3589222 2.71146177 19.7121602 3.34206414 L 19.7121602 0 L 21.3264706 0 L 21.3264706 8.96658899 L 19.8130631 8.96658899 L 19.8130631 7.89461166 C 19.5481978 8.5630167 18.8672102 9.1052896 17.7573755 9.1052896 C 15.9791027 9.1052896 14.907053 7.7559305 14.907053 5.7381469 L 14.907053 5.73812744 Z M 18.1229296 7.62975944 C 19.1446057 7.62975944 19.7121602 6.86045646 19.7121602 5.67505164 C 19.7121602 4.55272262 19.1571553 3.82124178 18.1229296 3.82124178 C 17.1014482 3.82124178 16.559168 4.55274208 16.559168 5.71287378 C 16.559168 6.86045646 17.1014482 7.62975944 18.1229296 7.62975944 L 18.1229296 7.62975944 Z" stroke-linecap="round" />
</g>
		<g transform="matrix(1 0 0 1 -41.37 -12.94)" id="Shape"  >
<path style="stroke: none; stroke-width: 1; stroke-dasharray: none; stroke-linecap: butt; stroke-dashoffset: 0; stroke-linejoin: miter; stroke-miterlimit: 4; fill: rgb(255,255,255); fill-rule: nonzero; opacity: 1;" vector-effect="non-scaling-stroke"  transform=" translate(-25.77, -5.73)" d="M 22.7137203 5.80120325 C 22.7137203 3.83377133 23.7857505 2.34571162 25.8539683 2.34571162 C 27.9727349 2.34571162 28.8304486 3.87178802 28.8304486 5.75067645 L 28.8304486 6.1669534 L 24.3027563 6.1669534 C 24.4036592 7.25146028 24.9333898 7.79371372 25.9170667 7.79371372 C 26.6486031 7.79371372 27.0899804 7.5163125 27.2917667 6.96133494 L 28.8177238 7.28926296 C 28.4141511 8.47466778 27.38012 9.10527015 25.8917923 9.10527015 C 23.9875368 9.10527015 22.7137203 7.91986533 22.7137203 5.80120325 L 22.7137203 5.80120325 Z M 27.2414126 5.0697224 C 27.1908638 4.14918925 26.7494865 3.65726804 25.8539683 3.65726804 C 24.9584501 3.65726804 24.491993 4.1491698 24.3405608 5.0697224 L 27.2414126 5.0697224 Z" stroke-linecap="round" />
</g>
		<g transform="matrix(1 0 0 1 -34.02 -13.01)" id="Path"  >
<path style="stroke: none; stroke-width: 1; stroke-dasharray: none; stroke-linecap: butt; stroke-dashoffset: 0; stroke-linejoin: miter; stroke-miterlimit: 4; fill: rgb(255,255,255); fill-rule: nonzero; opacity: 1;" vector-effect="non-scaling-stroke"  transform=" translate(-33.12, -5.66)" d="M 30.2176593 2.45933367 L 31.7814404 2.45933367 L 31.7814404 3.48076475 C 32.1472086 2.73673489 32.8787256 2.34571162 33.8624025 2.34571162 C 35.3127311 2.34571162 36.0315232 3.21591253 36.0315232 4.69142324 L 36.0315232 8.96656953 L 34.4046827 8.96656953 L 34.4046827 4.98135402 C 34.4046827 4.18697247 33.9507558 3.78341964 33.2695736 3.78341964 C 32.4246041 3.78341964 31.8319697 4.36347576 31.8319697 5.43545309 L 31.8319697 8.96656953 L 30.2176593 8.96656953 L 30.2176593 2.45933367 L 30.2176593 2.45933367 Z" stroke-linecap="round" />
</g>
		<g transform="matrix(1 0 0 1 -28.04 -14.04)" id="Path"  >
<polygon style="stroke: none; stroke-width: 1; stroke-dasharray: none; stroke-linecap: butt; stroke-dashoffset: 0; stroke-linejoin: miter; stroke-miterlimit: 4; fill: rgb(255,255,255); fill-rule: nonzero; opacity: 1;" vector-effect="non-scaling-stroke"  points="-1.75,-0.73 1.75,-0.73 1.75,0.73 -1.75,0.73 " />
</g>
		<g transform="matrix(1 0 0 1 -19.97 -14.11)" id="Path"  >
<polygon style="stroke: none; stroke-width: 1; stroke-dasharray: none; stroke-linecap: butt; stroke-dashoffset: 0; stroke-linejoin: miter; stroke-miterlimit: 4; fill: rgb(255,255,255); fill-rule: nonzero; opacity: 1;" vector-effect="non-scaling-stroke"  points="-5.9,-4.41 -4.17,-4.41 -2.62,2.19 -0.96,-4.41 0.96,-4.41 2.62,2.19 4.17,-4.41 5.9,-4.41 3.66,4.41 1.74,4.41 0,-2.09 -1.74,4.41 -3.66,4.41 -5.9,-4.41 " />
</g>
		<g transform="matrix(1 0 0 1 -10.58 -14.03)" id="Shape"  >
<path style="stroke: none; stroke-width: 1; stroke-dasharray: none; stroke-linecap: butt; stroke-dashoffset: 0; stroke-linejoin: miter; stroke-miterlimit: 4; fill: rgb(255,255,255); fill-rule: nonzero; opacity: 1;" vector-effect="non-scaling-stroke"  transform=" translate(-56.56, -4.63)" d="M 53.7134647 6.75955853 L 53.7134647 2.45933367 L 55.3277751 2.45933367 L 55.3277751 6.49490087 C 55.3277751 7.30200653 55.7566222 7.70557881 56.4376099 7.70557881 C 57.2447553 7.70557881 57.7745054 7.04970332 57.7745054 6.02827224 L 57.7745054 2.45933367 L 59.4013459 2.45933367 L 59.4013459 8.96658899 L 57.8751942 8.96658899 L 57.8751942 7.85680898 C 57.5347004 8.70173677 56.8159082 9.1052896 55.8825855 9.1052896 C 54.4828056 9.1052896 53.7134647 8.23508869 53.7134647 6.75957798 L 53.7134647 6.75955853 Z M 54.6593371 0.151424726 L 56.0591169 0.151424726 L 56.0591169 1.60168176 L 54.6593371 1.60168176 L 54.6593371 0.151424726 Z M 57.080793 0.151424726 L 58.4805728 0.151424726 L 58.4805728 1.60168176 L 57.080793 1.60168176 L 57.080793 0.151424726 Z" stroke-linecap="round" />
</g>
		<g transform="matrix(1 0 0 1 -4.38 -12.99)" id="Path"  >
<path style="stroke: none; stroke-width: 1; stroke-dasharray: none; stroke-linecap: butt; stroke-dashoffset: 0; stroke-linejoin: miter; stroke-miterlimit: 4; fill: rgb(255,255,255); fill-rule: nonzero; opacity: 1;" vector-effect="non-scaling-stroke"  transform=" translate(-62.76, -5.68)" d="M 60.8894985 2.45933367 L 62.4532602 2.45933367 L 62.4532602 3.61946536 C 62.6675961 2.87543551 63.2226011 2.38353375 64.0550209 2.38353375 L 64.6225755 2.38353375 L 64.6225755 3.9724914 L 64.0422962 3.9724914 C 62.9324614 3.9724914 62.5038089 4.62836689 62.5038089 5.76342002 L 62.5038089 8.96660845 L 60.8894985 8.96660845 L 60.8894985 2.45933367 Z" stroke-linecap="round" />
</g>
		<g transform="matrix(1 0 0 1 0.2 -13.92)" id="Path"  >
<path style="stroke: none; stroke-width: 1; stroke-dasharray: none; stroke-linecap: butt; stroke-dashoffset: 0; stroke-linejoin: miter; stroke-miterlimit: 4; fill: rgb(255,255,255); fill-rule: nonzero; opacity: 1;" vector-effect="non-scaling-stroke"  transform=" translate(-67.34, -4.74)" d="M 66.3628491 7.11277912 L 66.3628491 3.88431758 L 65.2404648 3.88431758 L 65.2404648 2.45933367 L 66.3628491 2.45933367 L 66.3628491 0.971079395 L 67.9898843 0.517174877 L 67.9898843 2.45933367 L 69.3015054 2.45933367 L 69.3015054 3.88431758 L 67.9898843 3.88431758 L 67.9898843 6.84790745 C 67.9898843 7.33980921 68.1538661 7.54158562 68.6583223 7.54158562 L 69.4402128 7.54158562 L 69.4402128 8.96656953 L 68.216945 8.96656953 C 66.9809524 8.96656953 66.3628491 8.36124029 66.3628491 7.11275967 L 66.3628491 7.11277912 Z" stroke-linecap="round" />
</g>
		<g transform="matrix(1 0 0 1 4.99 -13.92)" id="Path"  >
<path style="stroke: none; stroke-width: 1; stroke-dasharray: none; stroke-linecap: butt; stroke-dashoffset: 0; stroke-linejoin: miter; stroke-miterlimit: 4; fill: rgb(255,255,255); fill-rule: nonzero; opacity: 1;" vector-effect="non-scaling-stroke"  transform=" translate(-72.13, -4.74)" d="M 71.1552316 7.11277912 L 71.1552316 3.88431758 L 70.0328472 3.88431758 L 70.0328472 2.45933367 L 71.1552316 2.45933367 L 71.1552316 0.971079395 L 72.7822667 0.517174877 L 72.7822667 2.45933367 L 74.0938878 2.45933367 L 74.0938878 3.88431758 L 72.7822667 3.88431758 L 72.7822667 6.84790745 C 72.7822667 7.33980921 72.9462485 7.54158562 73.4507047 7.54158562 L 74.2325953 7.54158562 L 74.2325953 8.96656953 L 73.0093275 8.96656953 C 71.7733349 8.96656953 71.1552316 8.36124029 71.1552316 7.11275967 L 71.1552316 7.11277912 Z" stroke-linecap="round" />
</g>
		<g transform="matrix(1 0 0 1 11.02 -12.94)" id="Shape"  >
<path style="stroke: none; stroke-width: 1; stroke-dasharray: none; stroke-linecap: butt; stroke-dashoffset: 0; stroke-linejoin: miter; stroke-miterlimit: 4; fill: rgb(255,255,255); fill-rule: nonzero; opacity: 1;" vector-effect="non-scaling-stroke"  transform=" translate(-78.16, -5.73)" d="M 75.1026446 5.80120325 C 75.1026446 3.83377133 76.1746748 2.34571162 78.2428926 2.34571162 C 80.3616592 2.34571162 81.2193729 3.87178802 81.2193729 5.75067645 L 81.2193729 6.1669534 L 76.6916806 6.1669534 C 76.7925835 7.25146028 77.3223141 7.79371372 78.305991 7.79371372 C 79.0375274 7.79371372 79.4789047 7.5163125 79.680691 6.96133494 L 81.2066481 7.28926296 C 80.8030754 8.47466778 79.7690443 9.10527015 78.2807166 9.10527015 C 76.3764611 9.10527015 75.1026446 7.91986533 75.1026446 5.80120325 L 75.1026446 5.80120325 Z M 79.6303368 5.0697224 C 79.5797881 4.14918925 79.1384108 3.65726804 78.2428926 3.65726804 C 77.3473744 3.65726804 76.8809173 4.1491698 76.7294851 5.0697224 L 79.6303368 5.0697224 L 79.6303368 5.0697224 Z" stroke-linecap="round" />
</g>
		<g transform="matrix(1 0 0 1 20.08 -13.01)" id="Path"  >
<path style="stroke: none; stroke-width: 1; stroke-dasharray: none; stroke-linecap: butt; stroke-dashoffset: 0; stroke-linejoin: miter; stroke-miterlimit: 4; fill: rgb(255,255,255); fill-rule: nonzero; opacity: 1;" vector-effect="non-scaling-stroke"  transform=" translate(-87.22, -5.66)" d="M 82.5940534 2.45933367 L 84.1705593 2.45933367 L 84.1705593 3.41768895 C 84.4985035 2.71146177 85.166961 2.34571162 85.9613817 2.34571162 C 86.7558024 2.34571162 87.4747892 2.71146177 87.7018499 3.54384055 C 88.0801483 2.71146177 88.8494892 2.34571162 89.782812 2.34571162 C 90.9304513 2.34571162 91.8512438 3.06466291 91.8512438 4.45184415 L 91.8512438 8.96658899 L 90.2369334 8.96658899 L 90.2369334 4.83014331 C 90.2369334 4.12391613 89.8584405 3.7834391 89.2530814 3.7834391 C 88.5720938 3.7834391 88.0423437 4.25006773 88.0423437 5.17062033 L 88.0423437 8.96658899 L 86.4155032 8.96658899 L 86.4155032 4.83014331 C 86.4155032 4.12391613 86.0372048 3.7834391 85.4318262 3.7834391 C 84.7633882 3.7834391 84.2210886 4.25006773 84.2210886 5.17062033 L 84.2210886 8.96658899 L 82.5940534 8.96658899 L 82.5940534 2.45933367 L 82.5940534 2.45933367 Z" stroke-linecap="round" />
</g>
		<g transform="matrix(1 0 0 1 29.48 -14.11)" id="Shape"  >
<path style="stroke: none; stroke-width: 1; stroke-dasharray: none; stroke-linecap: butt; stroke-dashoffset: 0; stroke-linejoin: miter; stroke-miterlimit: 4; fill: rgb(255,255,255); fill-rule: nonzero; opacity: 1;" vector-effect="non-scaling-stroke"  transform=" translate(-96.62, -4.55)" d="M 94.9284324 7.94515791 L 94.9284324 8.96658899 L 93.4150249 8.96658899 L 93.4150249 0 L 95.0293353 0 L 95.0293353 3.45549163 C 95.3698292 2.78708658 96.0760912 2.34571162 97.0344937 2.34571162 C 98.8127665 2.34571162 99.834248 3.72034384 99.834248 5.70032477 C 99.834248 7.73063792 98.7624123 9.1052896 96.9841396 9.1052896 C 95.9121094 9.1052896 95.1931226 8.58830928 94.9284519 7.94515791 L 94.9284324 7.94515791 Z M 96.6183519 7.62975944 C 97.6525581 7.62975944 98.1821136 6.87318058 98.1821136 5.71287378 C 98.1821136 4.55256698 97.6651078 3.83379079 96.6436263 3.83379079 C 95.6094201 3.83379079 95.0293159 4.56529109 95.0293159 5.72559789 C 95.0293159 6.8984537 95.6094006 7.62975944 96.6183519 7.62975944 Z" stroke-linecap="round" />
</g>
		<g transform="matrix(1 0 0 1 36.71 -12.94)" id="Shape"  >
<path style="stroke: none; stroke-width: 1; stroke-dasharray: none; stroke-linecap: butt; stroke-dashoffset: 0; stroke-linejoin: miter; stroke-miterlimit: 4; fill: rgb(255,255,255); fill-rule: nonzero; opacity: 1;" vector-effect="non-scaling-stroke"  transform=" translate(-103.85, -5.73)" d="M 100.792826 5.80120325 C 100.792826 3.83377133 101.864856 2.34571162 103.933074 2.34571162 C 106.05184 2.34571162 106.909554 3.87178802 106.909554 5.75067645 L 106.909554 6.1669534 L 102.381862 6.1669534 C 102.482765 7.25146028 103.012495 7.79371372 103.996172 7.79371372 C 104.727708 7.79371372 105.169086 7.5163125 105.370872 6.96133494 L 106.896829 7.28926296 C 106.493256 8.47466778 105.459225 9.10527015 103.970898 9.10527015 C 102.066642 9.10527015 100.792826 7.91986533 100.792826 5.80120325 L 100.792826 5.80120325 Z M 105.320518 5.0697224 C 105.269969 4.14918925 104.828592 3.65726804 103.933074 3.65726804 C 103.037555 3.65726804 102.571098 4.1491698 102.419666 5.0697224 L 105.320518 5.0697224 L 105.320518 5.0697224 Z" stroke-linecap="round" />
</g>
		<g transform="matrix(1 0 0 1 43.02 -12.99)" id="Path"  >
<path style="stroke: none; stroke-width: 1; stroke-dasharray: none; stroke-linecap: butt; stroke-dashoffset: 0; stroke-linejoin: miter; stroke-miterlimit: 4; fill: rgb(255,255,255); fill-rule: nonzero; opacity: 1;" vector-effect="non-scaling-stroke"  transform=" translate(-110.16, -5.68)" d="M 108.296804 2.45933367 L 109.860565 2.45933367 L 109.860565 3.61946536 C 110.074901 2.87543551 110.629906 2.38353375 111.462326 2.38353375 L 112.029881 2.38353375 L 112.029881 3.9724914 L 111.449601 3.9724914 C 110.339767 3.9724914 109.911114 4.62836689 109.911114 5.76342002 L 109.911114 8.96660845 L 108.296804 8.96660845 L 108.296804 2.45933367 Z" stroke-linecap="round" />
</g>
		<g transform="matrix(1 0 0 1 48.63 -11.73)" id="Shape"  >
<path style="stroke: none; stroke-width: 1; stroke-dasharray: none; stroke-linecap: butt; stroke-dashoffset: 0; stroke-linejoin: miter; stroke-miterlimit: 4; fill: rgb(255,255,255); fill-rule: nonzero; opacity: 1;" vector-effect="non-scaling-stroke"  transform=" translate(-115.78, -6.94)" d="M 112.647789 9.52156654 L 114.224276 9.18089496 C 114.312434 9.79896777 114.779106 10.2528723 115.775507 10.2528723 C 116.796989 10.2528723 117.402348 9.73589197 117.402348 8.75226356 L 117.402348 7.65503257 C 117.049304 8.34871074 116.305238 8.75226356 115.371934 8.75226356 C 113.845783 8.75226356 112.57218 7.71810837 112.57218 5.59942683 C 112.57218 3.44294262 113.883801 2.34571162 115.447563 2.34571162 C 116.41869 2.34571162 117.074404 2.77453757 117.377287 3.3671427 L 117.377287 2.45933367 L 118.978854 2.45933367 L 118.978854 8.55048715 C 118.978854 10.6060734 117.528525 11.526626 115.762977 11.526626 C 114.173746 11.526626 112.975753 10.8203989 112.647809 9.52156654 L 112.647789 9.52156654 Z M 115.775507 7.39018035 C 116.620477 7.39018035 117.351994 6.86043701 117.351994 5.61197584 C 117.351994 4.41404147 116.683556 3.83379079 115.800762 3.83379079 C 114.917969 3.83379079 114.224276 4.38876834 114.224276 5.62471941 C 114.224276 6.82265378 114.905263 7.39018035 115.775507 7.39018035 L 115.775507 7.39018035 Z" stroke-linecap="round" />
</g>
		<g transform="matrix(1 0 0 1 -93.41 -0.54)" id="Shape"  >
<path style="stroke: none; stroke-width: 1; stroke-dasharray: none; stroke-linecap: butt; stroke-dashoffset: 0; stroke-linejoin: miter; stroke-miterlimit: 4; fill: rgb(255,255,255); fill-rule: nonzero; opacity: 1;" vector-effect="non-scaling-stroke"  transform=" translate(-14.59, -19.46)" d="M 25.9535093 31.9242157 C 26.7586701 31.7121666 27.3476855 30.8783675 27.2817659 29.9292732 C 27.1994053 28.7526819 26.0853874 27.5081702 23.4433304 28.0300534 C 22.4817953 28.2203898 21.6945931 28.5001841 20.9392221 28.8083255 C 20.146319 29.1317593 19.3885743 29.4864001 18.5011307 29.8016235 C 17.5872842 30.126244 16.820317 30.2665595 16.2237913 30.2159354 C 15.6872119 30.1704088 15.2884839 29.9704417 15.0447876 29.6111898 C 14.7132245 29.1139961 15.1950913 28.6126972 15.3989596 28.472693 C 15.7706232 28.2297481 16.1052216 27.8151249 15.9075212 27.1408831 C 15.5513452 27.2028499 14.9259456 27.4121557 14.4282214 27.8046576 C 14.0164768 28.1292782 13.6920349 28.5791942 13.6795047 29.1747177 C 13.7031642 29.9889637 14.2663409 30.625111 15.2032632 30.8495145 C 15.8319899 31.0000054 16.3335276 31.0484115 16.9261619 30.9708216 C 17.7768322 30.8594564 18.8154941 30.4885116 20.6881322 29.7872067 C 22.4379203 29.1123423 23.421675 28.8226061 24.1754311 28.7885584 C 24.6483673 28.7671959 25.0308488 28.8465368 25.4552209 28.9945762 C 25.7205726 29.087186 25.9123776 29.2275792 26.0400725 29.3916697 C 26.1918939 29.5868506 26.2528714 29.8155344 26.2387263 30.0370974 C 26.2120316 30.4527712 25.920744 30.8434637 25.4681596 30.9410931 C 25.3639491 30.9636035 25.2510802 30.9705298 25.1308956 30.9586228 C 24.9908651 30.9452372 24.8384795 30.9164231 24.6665204 30.8844961 C 24.158815 30.7892793 23.4741305 30.6614934 22.40856 30.7788509 C 21.7692877 30.8492616 20.9929034 31.0079044 20.035357 31.3147812 C 18.0374365 31.9550531 16.5462487 32.2115394 15.3950877 32.2556846 C 13.7646282 32.3182157 12.8163042 31.9547224 12.0763236 31.6524372 C 12.0033606 30.9440309 11.8327246 30.3587606 11.6236225 29.883124 C 11.2842766 29.1112723 10.8434441 28.6281256 10.5535963 28.3759197 C 10.5535963 28.3759197 10.7213722 28.2719478 10.8047835 27.6882729 C 10.387805 27.6049046 9.79888687 27.8396003 9.79888687 27.8396003 C 9.79888687 27.8396003 8.70539583 27.1375561 7.22685491 27.3876997 C 6.66262746 27.4865159 6.39394865 27.6409368 6.2394812 27.8962168 C 5.06466077 28.3275331 4.96889445 28.4016403 4.66935717 28.5745832 C 4.47469199 28.6970771 4.49123026 28.8607395 4.49123026 28.9019275 C 4.49123026 28.9966385 4.54063105 29.0552978 4.56218917 29.0810379 C 4.59316438 29.1170701 4.62194097 29.1500088 4.62194097 29.2158863 C 4.62507351 29.5576474 4.59524626 29.5335027 4.70021564 29.8042306 C 4.74658117 29.9133389 4.84946867 29.9051091 4.9730582 29.8629094 C 5.74839182 29.5736401 6.34357502 29.7992499 6.38159359 30.3236429 C 6.41198509 30.7758353 5.99045374 31.1004947 5.42727696 31.1457879 C 5.30168338 31.1533367 5.21447805 31.1584731 5.16573879 31.1612164 C 5.07310501 31.1673839 5.01127134 31.1756137 5.02162235 31.2837103 C 5.03358827 31.3692381 5.15690541 31.6772628 5.19035163 31.7646195 C 5.27508595 32.0029923 5.32925365 32.0363785 5.52903597 32.0435772 C 5.90591399 32.0569628 6.39394865 31.963283 6.55042015 31.9148963 C 6.55042015 31.9148963 6.53397917 32.3925369 6.6832322 33.043101 C 5.3776816 32.572659 4.38100754 32.4265068 3.27525872 32.4666442 C 2.17073567 32.5064119 1.43684502 32.7328389 0.949938851 33.0059598 C 0.0882559987 33.4892815 0 34.1187944 0 34.1187944 C 0.00616780238 34.1197866 1.27058675 34.4172857 1.78844867 34.2711335 C 2.13958535 34.1712668 2.38051878 33.831568 2.38051878 33.831568 C 2.38051878 33.831568 3.21503995 34.002896 4.31261693 34.5851895 C 4.84939084 34.8699451 5.44904911 35.2530109 6.04481601 35.7623645 C 6.06686056 35.7811783 7.44611347 35.1531247 7.5139593 35.1281823 C 7.68410893 35.0656124 7.81151199 35.1791955 7.840775 35.2345862 C 7.88871653 35.3253282 7.90537154 35.4955084 7.77236493 35.5841881 C 7.64163476 35.7015067 6.71726213 36.1095733 5.82658866 36.6356006 C 5.24792427 36.9783928 4.61890571 37.3500187 4.07833772 37.680437 C 3.65414079 37.6259218 3.46984607 37.6094038 3.07139047 37.6135479 C 2.21986407 37.6228283 1.65972254 38.3670722 1.65972254 38.9115825 L 4.97202699 38.9115825 C 5.10997563 38.8614643 6.49502667 38.5788294 7.8937753 38.2989962 C 8.91060659 38.0955466 9.93465635 37.8935951 10.4918404 37.783514 C 10.7417045 37.7341351 10.8962693 37.7032782 10.9169908 37.6989979 C 10.9912768 37.6822464 11.0917906 37.6703005 11.1826149 37.5812707 C 11.2281243 37.536639 11.2711627 37.4725904 11.307255 37.3788522 C 11.3329964 37.3149982 11.4504181 36.9743071 11.4504181 36.9743071 L 12.175203 36.9043245 C 13.1426335 36.8223376 14.000425 36.6275848 14.7703302 36.3812156 C 15.7597858 36.0646303 16.6042883 35.6628285 17.350067 35.3056389 C 18.2582127 34.8702175 19.0077855 34.5109655 19.6574283 34.482132 C 19.5530231 35.1243301 19.7038911 35.6239169 19.8061171 36.1160715 C 19.9035956 36.5847819 19.9568877 37.0467412 19.7037938 37.6186842 C 17.7855683 37.6186842 17.9966745 38.9115825 17.9966745 38.9115825 L 21.3234159 38.9115825 C 21.3234159 38.9115825 21.5577924 38.1465014 22.0965509 37.303383 C 22.3445082 36.9152198 22.648326 36.5103245 23.0389794 36.155528 C 23.1204061 36.0824519 23.1131682 36.0052317 23.0668221 35.9434789 C 22.6446292 35.4195139 22.4312466 34.3644242 22.4312466 34.3644242 C 22.3951543 34.229537 22.5580854 34.1400207 22.613654 34.1307403 C 22.6722773 34.1204676 22.8302664 34.1193391 22.8625647 34.2713281 C 22.8625647 34.2713281 22.9367535 35.0030035 23.6297265 35.6402014 C 24.0681658 36.0421394 24.6003868 36.358997 25.1310708 36.6089655 C 25.7693118 36.9095387 26.4056461 37.1134163 26.8750607 37.2522531 C 27.4114454 37.4107792 27.4712167 37.5898507 27.4712167 37.6433737 C 27.4588616 37.6433737 27.267329 37.6526541 27.2364705 37.6557476 C 26.9646592 37.6855734 26.6526695 37.7205939 26.2891778 38.065429 C 25.9175142 38.4184939 25.9958083 38.9115825 25.9958083 38.9115825 L 28.2846467 38.9115825 C 28.5832501 38.9115825 28.6892701 38.7355461 28.7932083 38.3989408 C 28.8601786 38.182806 29.1309392 37.0854972 29.1495594 37.0103199 C 29.2390606 36.676808 29.1453762 36.4997211 29.0300363 36.3999126 C 28.7676421 36.136792 28.4486091 35.9063571 28.1543835 35.7219548 C 27.6772836 35.4229381 27.2652471 35.2449367 27.2652471 35.2449367 C 27.2109043 34.7354858 26.9704573 33.8816667 26.6340494 33.1117217 C 26.4354929 32.6572919 26.2003576 32.2320847 25.9535287 31.9241378 L 25.9535093 31.9242157 Z M 6.3524084 28.3173577 C 6.69745511 28.1112231 7.15081778 28.0585951 7.52370715 28.1024486 C 7.48333431 28.7766709 6.53670312 28.9554505 6.3524084 28.3173577 Z M 3.11649131 29.7583732 C 3.12979976 29.7295591 3.14489823 29.701173 3.16170889 29.6733707 C 3.16447176 29.6687596 3.17814988 29.6462298 3.18184667 29.6412685 C 3.18887057 29.6318325 3.20416361 29.6376303 3.20511699 29.6492649 C 3.21850326 29.9148564 3.3709083 30.325569 4.11221199 30.4182177 C 4.8134347 30.5067417 5.34061642 30.3873218 5.79055468 30.2545552 C 5.84100614 30.376018 5.82760041 30.5675022 5.59598678 30.6529133 C 5.38698195 30.7167479 4.81857129 30.8824727 3.93513575 30.7887929 C 3.11030405 30.7012416 2.92011393 30.1832496 3.11649131 29.7583537 L 3.11649131 29.7583732 Z M 25.9535093 18.3537741 C 26.7586701 18.141725 27.3476855 17.307926 27.2817659 16.3588317 C 27.1994053 15.1822403 26.0853874 13.9377287 23.4433304 14.4596119 C 22.4817953 14.6499483 21.6945931 14.9297426 20.9392221 15.237884 C 20.146319 15.5613177 19.3885743 15.9159586 18.5011307 16.231182 C 17.5872842 16.5558025 16.820317 16.6961179 16.2237913 16.6454939 C 15.6872119 16.5999672 15.2884839 16.4000002 15.0447876 16.0407483 C 14.7132245 15.5435546 15.1950913 15.0422556 15.3989596 14.9022515 C 15.7706232 14.6593065 16.1052216 14.2446833 15.9075212 13.5704415 C 15.5513452 13.6324084 14.9259456 13.8417142 14.4282214 14.2342161 C 14.0164768 14.5588366 13.6920349 15.0087527 13.6795047 15.6042762 C 13.7031642 16.4185221 14.2663409 17.0546694 15.2032632 17.279073 C 15.8319899 17.4295638 16.3335276 17.4779699 16.9261619 17.4003801 C 17.7768322 17.2890149 18.8154941 16.91807 20.6881322 16.2167652 C 22.4379203 15.5419008 23.421675 15.2521646 24.1754311 15.2181169 C 24.6483673 15.1967544 25.0308488 15.2760953 25.4552209 15.4241347 C 25.7205726 15.5167444 25.9123776 15.6571377 26.0400725 15.8212282 C 26.1918939 16.016409 26.2528714 16.2450929 26.2387263 16.4666559 C 26.2120316 16.8823297 25.920744 17.2730222 25.4681596 17.3706516 C 25.3639491 17.393162 25.2510802 17.4000882 25.1308956 17.3881813 C 24.9908651 17.3747957 24.8384795 17.3459816 24.6665204 17.3140546 C 24.158815 17.2188377 23.4741305 17.0910518 22.40856 17.2084094 C 21.7692877 17.27882 20.9929034 17.4374629 20.035357 17.7443397 C 18.0374365 18.3846116 16.5462487 18.6410978 15.3950877 18.6852431 C 13.7646282 18.7477741 12.8163042 18.3842809 12.0763236 18.0819956 C 12.0033606 17.3735894 11.8327246 16.7883191 11.6236225 16.3126824 C 11.2842766 15.5408307 10.8434441 15.0576841 10.5535963 14.8054782 C 10.5535963 14.8054782 10.7213722 14.7015062 10.8047835 14.1178313 C 10.387805 14.0344631 9.79888687 14.2691588 9.79888687 14.2691588 C 9.79888687 14.2691588 8.70539583 13.5671146 7.22685491 13.8172582 C 6.66262746 13.9160744 6.39394865 14.0704953 6.2394812 14.3257752 C 5.06466077 14.7570915 4.96889445 14.8311988 4.66935717 15.0041417 C 4.47469199 15.1266356 4.49123026 15.290298 4.49123026 15.331486 C 4.49123026 15.426197 4.54063105 15.4848563 4.56218917 15.5105964 C 4.59316438 15.5466286 4.62194097 15.5795673 4.62194097 15.6454447 C 4.62507351 15.9872058 4.59524626 15.9630612 4.70021564 16.233789 C 4.74658117 16.3428973 4.84946867 16.3346675 4.9730582 16.2924678 C 5.74839182 16.0031985 6.34357502 16.2288083 6.38159359 16.7532013 C 6.41198509 17.2053937 5.99045374 17.5300532 5.42727696 17.5753464 C 5.30168338 17.5828952 5.21447805 17.5880316 5.16573879 17.5907748 C 5.07310501 17.5969423 5.01127134 17.6051721 5.02162235 17.7132687 C 5.03358827 17.7987966 5.15690541 18.1068213 5.19035163 18.1941779 C 5.27508595 18.4325508 5.32925365 18.465937 5.52903597 18.4731356 C 5.90591399 18.4865212 6.39394865 18.3928414 6.55042015 18.3444548 C 6.55042015 18.3444548 6.53397917 18.8220954 6.6832322 19.4726595 C 5.3776816 19.0022175 4.38100754 18.8560653 3.27525872 18.8962027 C 2.17073567 18.9359704 1.43684502 19.1623973 0.949938851 19.4355183 C 0.0882559987 19.91884 0 20.5483528 0 20.5483528 C 0.00616780238 20.5493451 1.27058675 20.8468442 1.78844867 20.700692 C 2.13958535 20.6008252 2.38051878 20.2611264 2.38051878 20.2611264 C 2.38051878 20.2611264 3.21503995 20.4324545 4.31261693 21.014748 C 4.84939084 21.2995035 5.44904911 21.6825694 6.04481601 22.191923 C 6.06686056 22.2107368 7.44611347 21.5826831 7.5139593 21.5577408 C 7.68410893 21.4951708 7.81151199 21.608754 7.840775 21.6641447 C 7.88871653 21.7548867 7.90537154 21.9250668 7.77236493 22.0137465 C 7.64163476 22.1310652 6.71726213 22.5391318 5.82658866 23.065159 C 5.24792427 23.4079513 4.61890571 23.7795771 4.07833772 24.1099955 C 3.65414079 24.0554802 3.46984607 24.0389622 3.07139047 24.0431063 C 2.21986407 24.0523868 1.65972254 24.7966306 1.65972254 25.341141 L 4.97202699 25.341141 C 5.10997563 25.2910227 6.49502667 25.0083879 7.8937753 24.7285547 C 8.91060659 24.5251051 9.93465635 24.3231536 10.4918404 24.2130725 C 10.7417045 24.1636936 10.8962693 24.1328366 10.9169908 24.1285563 C 10.9912768 24.1118049 11.0917906 24.099859 11.1826149 24.0108291 C 11.2281243 23.9661974 11.2711627 23.9021488 11.307255 23.8084107 C 11.3329964 23.7445566 11.4504181 23.4038656 11.4504181 23.4038656 L 12.175203 23.333883 C 13.1426335 23.2518961 14.000425 23.0571432 14.7703302 22.8107741 C 15.7597858 22.4941888 16.6042883 22.092387 17.350067 21.7351974 C 18.2582127 21.2997759 19.0077855 20.940524 19.6574283 20.9116905 C 19.5530231 21.5538885 19.7038911 22.0534753 19.8061171 22.54563 C 19.9035956 23.0143404 19.9568877 23.4762996 19.7037938 24.0482427 C 17.7855683 24.0482427 17.9966745 25.341141 17.9966745 25.341141 L 21.3234159 25.341141 C 21.3234159 25.341141 21.5577924 24.5760599 22.0965509 23.7329415 C 22.3445082 23.3447782 22.648326 22.9398829 23.0389794 22.5850864 C 23.1204061 22.5120103 23.1131682 22.4347901 23.0668221 22.3730373 C 22.6446292 21.8490724 22.4312466 20.7939827 22.4312466 20.7939827 C 22.3951543 20.6590954 22.5580854 20.5695792 22.613654 20.5602987 C 22.6722773 20.550026 22.8302664 20.5488976 22.8625647 20.7008866 C 22.8625647 20.7008866 22.9367535 21.432562 23.6297265 22.0697599 C 24.0681658 22.4716978 24.6003868 22.7885555 25.1310708 23.038524 C 25.7693118 23.3390971 26.4056461 23.5429748 26.8750607 23.6818116 C 27.4114454 23.8403377 27.4712167 24.0194091 27.4712167 24.0729321 C 27.4588616 24.0729321 27.267329 24.0822126 27.2364705 24.085306 C 26.9646592 24.1151318 26.6526695 24.1501523 26.2891778 24.4949874 C 25.9175142 24.8480524 25.9958083 25.341141 25.9958083 25.341141 L 28.2846467 25.341141 C 28.5832501 25.341141 28.6892701 25.1651046 28.7932083 24.8284993 C 28.8601786 24.6123645 29.1309392 23.5150557 29.1495594 23.4398783 C 29.2390606 23.1063665 29.1453762 22.9292795 29.0300363 22.8294711 C 28.7676421 22.5663505 28.4486091 22.3359156 28.1543835 22.1515133 C 27.6772836 21.8524966 27.2652471 21.6744952 27.2652471 21.6744952 C 27.2109043 21.1650443 26.9704573 20.3112252 26.6340494 19.5412802 C 26.4354929 19.0868503 26.2003576 18.6616432 25.9535287 18.3536963 L 25.9535093 18.3537741 Z M 6.3524084 14.7469161 C 6.69745511 14.5407816 7.15081778 14.4881536 7.52370715 14.532007 C 7.48333431 15.2062294 6.53670312 15.385009 6.3524084 14.7469161 Z M 3.11649131 16.1879316 C 3.12979976 16.1591176 3.14489823 16.1307315 3.16170889 16.1029291 C 3.16447176 16.0983181 3.17814988 16.0757882 3.18184667 16.070827 C 3.18887057 16.0613909 3.20416361 16.0671888 3.20511699 16.0788234 C 3.21850326 16.3444149 3.3709083 16.7551275 4.11221199 16.8477761 C 4.8134347 16.9363002 5.34061642 16.8168803 5.79055468 16.6841137 C 5.84100614 16.8055764 5.82760041 16.9970607 5.59598678 17.0824718 C 5.38698195 17.1463064 4.81857129 17.3120311 3.93513575 17.2183513 C 3.11030405 17.1308001 2.92011393 16.6128081 3.11649131 16.1879122 L 3.11649131 16.1879316 Z M 25.9535093 4.78333258 C 26.7586701 4.57128349 27.3476855 3.73748443 27.2817659 2.78839012 C 27.1994053 1.61179879 26.0853874 0.367287162 23.4433304 0.88917035 C 22.4817953 1.07950674 21.6945931 1.35930103 20.9392221 1.66744247 C 20.146319 1.99087619 19.3885743 2.34551706 18.5011307 2.66074042 C 17.5872842 2.98536095 16.820317 3.12567639 16.2237913 3.07505232 C 15.6872119 3.02952568 15.2884839 2.82955866 15.0447876 2.47030676 C 14.7132245 1.97311302 15.1950913 1.4718141 15.3989596 1.33180994 C 15.7706232 1.08886499 16.1052216 0.674241794 15.9075212 0 C 15.5513452 0.0619668191 14.9259456 0.27127264 14.4282214 0.663774558 C 14.0164768 0.988395084 13.6920349 1.43831116 13.6795047 2.03383466 C 13.7031642 2.84808061 14.2663409 3.48422789 15.2032632 3.70863143 C 15.8319899 3.85912228 16.3335276 3.90752838 16.9261619 3.82993853 C 17.7768322 3.71857336 18.8154941 3.3476285 20.6881322 2.64632365 C 22.4379203 1.97145927 23.421675 1.68172305 24.1754311 1.64767534 C 24.6483673 1.62631284 25.0308488 1.70565372 25.4552209 1.85369313 C 25.7205726 1.94630288 25.9123776 2.08669615 26.0400725 2.25078662 C 26.1918939 2.44596751 26.2528714 2.67465134 26.2387263 2.89621433 C 26.2120316 3.31188814 25.920744 3.70258067 25.4681596 3.80021003 C 25.3639491 3.82272042 25.2510802 3.8296467 25.1308956 3.81773973 C 24.9908651 3.80435412 24.8384795 3.77554003 24.6665204 3.74361302 C 24.158815 3.64839618 23.4741305 3.52061029 22.40856 3.63796786 C 21.7692877 3.70837851 20.9929034 3.86702135 20.035357 4.17389816 C 18.0374365 4.81417007 16.5462487 5.07065628 15.3950877 5.11480156 C 13.7646282 5.1773326 12.8163042 4.81383932 12.0763236 4.51155409 C 12.0033606 3.80314786 11.8327246 3.21787757 11.6236225 2.74224089 C 11.2842766 1.9703892 10.8434441 1.48724257 10.5535963 1.23503664 C 10.5535963 1.23503664 10.7213722 1.13106469 10.8047835 0.547389782 C 10.387805 0.464021549 9.79888687 0.698717228 9.79888687 0.698717228 C 9.79888687 0.698717228 8.70539583 -0.00332694696 7.22685491 0.246816661 C 6.66262746 0.345632823 6.39394865 0.500053747 6.2394812 0.755333694 C 5.06466077 1.18664999 4.96889445 1.26075725 4.66935717 1.43370012 C 4.47469199 1.55619403 4.49123026 1.71985647 4.49123026 1.76104447 C 4.49123026 1.85575545 4.54063105 1.91441478 4.56218917 1.94015484 C 4.59316438 1.97618704 4.62194097 2.00912576 4.62194097 2.0750032 C 4.62507351 2.41676431 4.59524626 2.39261963 4.70021564 2.6633475 C 4.74658117 2.7724558 4.84946867 2.76422598 4.9730582 2.72202629 C 5.74839182 2.432757 6.34357502 2.65836681 6.38159359 3.1827598 C 6.41198509 3.6349522 5.99045374 3.95961164 5.42727696 4.00490481 C 5.30168338 4.01245368 5.21447805 4.01759002 5.16573879 4.02033329 C 5.07310501 4.02650079 5.01127134 4.0347306 5.02162235 4.14282719 C 5.03358827 4.22835502 5.15690541 4.53637973 5.19035163 4.6237364 C 5.27508595 4.86210924 5.32925365 4.89549544 5.52903597 4.9026941 C 5.90591399 4.91607971 6.39394865 4.82239989 6.55042015 4.77401324 C 6.55042015 4.77401324 6.53397917 5.25165387 6.6832322 5.90221792 C 5.3776816 5.43177594 4.38100754 5.28562375 3.27525872 5.32576112 C 2.17073567 5.36552884 1.43684502 5.59195579 0.949938851 5.86507674 C 0.0882559987 6.34839847 0 6.97791131 0 6.97791131 C 0.00616780238 6.97890356 1.27058675 7.27640266 1.78844867 7.13025046 C 2.13958535 7.03038368 2.38051878 6.69068489 2.38051878 6.69068489 C 2.38051878 6.69068489 3.21503995 6.86201293 4.31261693 7.44430647 C 4.84939084 7.729062 5.44904911 8.11212784 6.04481601 8.62148147 C 6.06686056 8.64029526 7.44611347 8.01224161 7.5139593 7.98729923 C 7.68410893 7.92472928 7.81151199 8.03831242 7.840775 8.09370317 C 7.88871653 8.18444516 7.90537154 8.35462531 7.77236493 8.44330498 C 7.64163476 8.56062364 6.71726213 8.96869022 5.82658866 9.4947175 C 5.24792427 9.83750977 4.61890571 10.2091356 4.07833772 10.5395539 C 3.65414079 10.4850387 3.46984607 10.4685207 3.07139047 10.4726648 C 2.21986407 10.4819452 1.65972254 11.2261891 1.65972254 11.7706994 L 4.97202699 11.7706994 C 5.10997563 11.7205812 6.49502667 11.4379464 7.8937753 11.1581132 C 8.91060659 10.9546635 9.93465635 10.752712 10.4918404 10.6426309 C 10.7417045 10.593252 10.8962693 10.5623951 10.9169908 10.5581148 C 10.9912768 10.5413633 11.0917906 10.5294175 11.1826149 10.4403876 C 11.2281243 10.3957559 11.2711627 10.3317073 11.307255 10.2379691 C 11.3329964 10.1741151 11.4504181 9.83342405 11.4504181 9.83342405 L 12.175203 9.76344143 C 13.1426335 9.68145456 14.000425 9.4867017 14.7703302 9.24033252 C 15.7597858 8.92374725 16.6042883 8.52194545 17.350067 8.16475586 C 18.2582127 7.72933438 19.0077855 7.37008248 19.6574283 7.34124894 C 19.5530231 7.98344698 19.7038911 8.48303379 19.8061171 8.97518847 C 19.9035956 9.44389887 19.9568877 9.9058581 19.7037938 10.4778011 C 17.7855683 10.4778011 17.9966745 11.7706994 17.9966745 11.7706994 L 21.3234159 11.7706994 C 21.3234159 11.7706994 21.5577924 11.0056184 22.0965509 10.1625 C 22.3445082 9.77433669 22.648326 9.36944141 23.0389794 9.01464489 C 23.1204061 8.94156879 23.1131682 8.8643486 23.0668221 8.8025958 C 22.6446292 8.27863083 22.4312466 7.22354117 22.4312466 7.22354117 C 22.3951543 7.08865389 22.5580854 6.99913762 22.613654 6.98985719 C 22.6722773 6.97958451 22.8302664 6.97845607 22.8625647 7.13044502 C 22.8625647 7.13044502 22.9367535 7.86212042 23.6297265 8.49931832 C 24.0681658 8.90125631 24.6003868 9.21811396 25.1310708 9.46808247 C 25.7693118 9.76865559 26.4056461 9.97253323 26.8750607 10.11137 C 27.4114454 10.2698961 27.4712167 10.4489676 27.4712167 10.5024906 C 27.4588616 10.5024906 27.267329 10.511771 27.2364705 10.5148645 C 26.9646592 10.5446903 26.6526695 10.5797108 26.2891778 10.9245459 C 25.9175142 11.2776109 25.9958083 11.7706994 25.9958083 11.7706994 L 28.2846467 11.7706994 C 28.5832501 11.7706994 28.6892701 11.5946631 28.7932083 11.2580578 C 28.8601786 11.0419229 29.1309392 9.94461412 29.1495594 9.86943679 C 29.2390606 9.53592495 29.1453762 9.35883798 29.0300363 9.25902957 C 28.7676421 8.99590893 28.4486091 8.76547407 28.1543835 8.58107171 C 27.6772836 8.28205506 27.2652471 8.10405367 27.2652471 8.10405367 C 27.2109043 7.59460276 26.9704573 6.74078365 26.6340494 5.97083863 C 26.4354929 5.5164088 26.2003576 5.09120164 25.9535287 4.78325476 L 25.9535093 4.78333258 Z M 6.3524084 1.17647459 C 6.69745511 0.970340073 7.15081778 0.917712053 7.52370715 0.961565494 C 7.48333431 1.63578783 6.53670312 1.81456746 6.3524084 1.17647459 L 6.3524084 1.17647459 Z M 3.11649131 2.61749011 C 3.12979976 2.58867603 3.14489823 2.56028997 3.16170889 2.53248759 C 3.16447176 2.52787656 3.17814988 2.50534671 3.18184667 2.50038547 C 3.18887057 2.49094939 3.20416361 2.49674723 3.20511699 2.50838181 C 3.21850326 2.77397335 3.3709083 3.18468593 4.11221199 3.27733459 C 4.8134347 3.36585862 5.34061642 3.24643873 5.79055468 3.11367215 C 5.84100614 3.23513489 5.82760041 3.42661917 5.59598678 3.51203027 C 5.38698195 3.57586485 4.81857129 3.74158961 3.93513575 3.64790979 C 3.11030405 3.56035855 2.92011393 3.04236653 3.11649131 2.61747065 L 3.11649131 2.61749011 Z" stroke-linecap="round" />
</g>
</g>
</g>
</svg>